<?xml version="1.0" encoding="UTF-8"?>
<!DOCTYPE svg PUBLIC "-//W3C//DTD SVG 1.1//EN" "http://www.w3.org/Graphics/SVG/1.1/DTD/svg11.dtd">
<svg version="1.1" id="Слой_1" xmlns="http://www.w3.org/2000/svg" xmlns:xlink="http://www.w3.org/1999/xlink" x="0px" y="0px" width="214.301px" height="386.896px" viewBox="0 0 214.301 386.896" enable-background="new 0 0 214.301 386.896" xml:space="preserve"><path fill="#A9B0B9" d="M208.336,142.159c-11.894,48.331-77.374,149.528-77.374,149.528s-11.906,17.859-23.812,17.859s-23.812-17.859-23.812-17.859S17.859,190.49,5.971,142.159C2.167,131.17,0,119.425,0,107.151C0,47.974,47.974,0,107.151,0s107.15,47.974,107.15,107.151C214.301,119.425,212.14,131.17,208.336,142.159z M107.151,65.481c-23.014,0-41.67,18.656-41.67,41.67c0,23.013,18.656,41.669,41.67,41.669s41.67-18.656,41.67-41.669C148.821,84.137,130.164,65.481,107.151,65.481z M107.151,327.441c49.313,0,89.292,13.305,89.292,29.727c0,16.418-39.979,29.729-89.292,29.729s-89.292-13.311-89.292-29.729C17.859,340.746,57.838,327.441,107.151,327.441z"/></svg>