<?xml version="1.0" standalone="no"?>
<!DOCTYPE svg PUBLIC "-//W3C//DTD SVG 20010904//EN"
 "http://www.w3.org/TR/2001/REC-SVG-20010904/DTD/svg10.dtd">
<svg version="1.0" xmlns="http://www.w3.org/2000/svg"
 width="1800.000000pt" height="562.000000pt" viewBox="0 0 1800.000000 562.000000"
 preserveAspectRatio="xMidYMid meet">

<g transform="translate(0.000000,562.000000) scale(0.100000,-0.100000)"
fill="#000000" stroke="none">
<path d="M8963 5605 c-7 -8 -13 -21 -13 -30 0 -8 -4 -15 -10 -15 -5 0 -10 -9
-10 -20 0 -11 -4 -20 -10 -20 -5 0 -10 -9 -10 -20 0 -11 -4 -20 -10 -20 -5 0
-10 -9 -10 -20 0 -11 -4 -20 -10 -20 -5 0 -10 -9 -10 -19 0 -11 -4 -23 -10
-26 -5 -3 -10 -15 -10 -26 0 -10 -4 -19 -10 -19 -5 0 -10 -9 -10 -19 0 -11 -4
-23 -10 -26 -5 -3 -10 -15 -10 -26 0 -10 -4 -19 -10 -19 -5 0 -10 -9 -10 -20
0 -11 -4 -20 -10 -20 -5 0 -10 -9 -10 -20 0 -11 -4 -20 -10 -20 -5 0 -10 -9
-10 -20 0 -11 -4 -20 -10 -20 -5 0 -10 -9 -10 -20 0 -11 -4 -20 -10 -20 -5 0
-10 -7 -10 -16 0 -20 -24 -44 -44 -44 -9 0 -16 -4 -16 -10 0 -6 -27 -10 -60
-10 -33 0 -60 -4 -60 -10 0 -5 -24 -10 -54 -10 -30 0 -58 -4 -61 -10 -3 -5
-30 -10 -59 -10 -28 0 -56 -4 -61 -9 -6 -5 -32 -12 -60 -15 -145 -16 -145 -16
-145 -43 0 -14 8 -33 18 -42 10 -9 29 -32 42 -51 14 -19 68 -78 120 -130 52
-52 106 -111 120 -130 13 -19 46 -56 72 -82 43 -42 48 -51 48 -92 0 -25 -4
-46 -10 -46 -6 0 -10 -28 -10 -64 0 -36 -4 -68 -10 -71 -5 -3 -10 -35 -10 -71
0 -36 -4 -64 -10 -64 -6 0 -10 -30 -10 -70 0 -40 -4 -70 -10 -70 -6 0 -10 -30
-10 -70 0 -40 -4 -70 -10 -70 -5 0 -10 -7 -10 -15 0 -11 11 -15 40 -15 22 0
40 5 40 10 0 6 9 10 20 10 11 0 20 5 20 10 0 6 7 10 15 10 9 0 25 9 37 20 12
11 28 20 35 20 7 0 13 5 13 10 0 6 9 10 20 10 11 0 20 5 20 10 0 6 9 10 20 10
11 0 20 5 20 10 0 6 9 10 20 10 11 0 20 5 20 10 0 6 6 10 13 10 7 0 23 9 35
20 12 11 28 20 37 20 8 0 15 5 15 10 0 6 9 10 20 10 11 0 20 5 20 10 0 6 9 10
20 10 11 0 20 5 20 10 0 6 9 10 20 10 11 0 20 5 20 10 0 6 14 10 30 10 17 0
30 -4 30 -10 0 -5 9 -10 20 -10 11 0 20 -4 20 -10 0 -5 9 -10 20 -10 11 0 20
-4 20 -10 0 -5 9 -10 20 -10 11 0 20 -4 20 -10 0 -5 7 -10 15 -10 9 0 25 -9
37 -20 12 -11 28 -20 35 -20 7 0 13 -4 13 -10 0 -5 9 -10 20 -10 11 0 20 -4
20 -10 0 -5 9 -10 20 -10 11 0 20 -4 20 -10 0 -5 9 -10 19 -10 11 0 21 -3 23
-7 4 -10 57 -42 81 -50 9 -3 17 -9 17 -14 0 -5 9 -9 20 -9 11 0 20 -4 20 -10
0 -5 18 -10 40 -10 28 0 40 4 40 14 0 8 -4 18 -10 21 -5 3 -10 35 -10 70 0 35
-4 67 -10 70 -5 3 -10 35 -10 71 0 36 -4 64 -10 64 -6 0 -10 30 -10 70 0 40
-4 70 -10 70 -6 0 -10 28 -10 65 0 37 -4 65 -10 65 -5 0 -10 21 -10 46 0 41 5
50 48 92 26 26 59 63 72 82 14 19 68 78 120 130 52 52 106 111 120 130 13 19
32 42 42 51 10 9 18 28 18 42 0 27 0 27 -145 43 -27 3 -54 10 -59 15 -6 5 -34
9 -62 9 -29 0 -56 5 -59 10 -3 6 -31 10 -61 10 -30 0 -54 5 -54 10 0 6 -27 10
-60 10 -33 0 -60 4 -60 10 0 6 -7 10 -16 10 -20 0 -44 24 -44 44 0 9 -4 16
-10 16 -5 0 -10 9 -10 20 0 11 -4 20 -10 20 -5 0 -10 9 -10 20 0 11 -4 20 -10
20 -5 0 -10 9 -10 20 0 11 -4 20 -10 20 -5 0 -10 9 -10 20 0 11 -4 20 -10 20
-5 0 -10 7 -10 15 0 8 -4 23 -9 33 -37 74 -51 106 -51 118 0 8 -4 14 -10 14
-5 0 -10 9 -10 20 0 11 -4 20 -10 20 -5 0 -10 9 -10 20 0 11 -4 20 -10 20 -5
0 -10 9 -10 20 0 11 -4 20 -10 20 -5 0 -10 7 -10 16 0 38 -61 59 -87 29z m47
-225 c0 -11 5 -20 10 -20 6 0 10 -4 10 -10 0 -5 -13 -10 -30 -10 -16 0 -30 5
-30 10 0 6 5 10 10 10 6 0 10 9 10 20 0 11 5 20 10 20 6 0 10 -9 10 -20z m-40
-70 c0 -5 -4 -10 -10 -10 -5 0 -10 5 -10 10 0 6 5 10 10 10 6 0 10 -4 10 -10z
m80 0 c0 -5 -4 -10 -10 -10 -5 0 -10 5 -10 10 0 6 5 10 10 10 6 0 10 -4 10
-10z m-100 -40 c0 -5 -4 -10 -10 -10 -5 0 -10 5 -10 10 0 6 5 10 10 10 6 0 10
-4 10 -10z m120 0 c0 -5 -4 -10 -10 -10 -5 0 -10 5 -10 10 0 6 5 10 10 10 6 0
10 -4 10 -10z m-140 -40 c0 -5 -4 -10 -10 -10 -5 0 -10 5 -10 10 0 6 5 10 10
10 6 0 10 -4 10 -10z m160 0 c0 -5 -4 -10 -10 -10 -5 0 -10 5 -10 10 0 6 5 10
10 10 6 0 10 -4 10 -10z m-180 -40 c0 -5 -4 -10 -10 -10 -5 0 -10 5 -10 10 0
6 5 10 10 10 6 0 10 -4 10 -10z m195 0 c3 -5 1 -10 -4 -10 -6 0 -11 5 -11 10
0 6 2 10 4 10 3 0 8 -4 11 -10z m-275 -174 c0 -3 -4 -8 -10 -11 -5 -3 -10 -1
-10 4 0 6 5 11 10 11 6 0 10 -2 10 -4z m360 -6 c0 -5 -2 -10 -4 -10 -3 0 -8 5
-11 10 -3 6 -1 10 4 10 6 0 11 -4 11 -10z m-380 -40 c0 -5 -4 -10 -10 -10 -5
0 -10 5 -10 10 0 6 5 10 10 10 6 0 10 -4 10 -10z m400 0 c0 -5 -4 -10 -10 -10
-5 0 -10 5 -10 10 0 6 5 10 10 10 6 0 10 -4 10 -10z m-420 -40 c0 -5 -9 -10
-20 -10 -11 0 -20 5 -20 10 0 6 9 10 20 10 11 0 20 -4 20 -10z m460 0 c0 -5
-9 -10 -20 -10 -11 0 -20 5 -20 10 0 6 9 10 20 10 11 0 20 -4 20 -10z m-545
-20 c-3 -5 -22 -10 -41 -10 -19 0 -34 5 -34 10 0 6 18 10 41 10 24 0 38 -4 34
-10z m665 0 c0 -5 -15 -10 -34 -10 -19 0 -38 5 -41 10 -4 6 10 10 34 10 23 0
41 -4 41 -10z m-780 -20 c0 -5 -18 -10 -40 -10 -22 0 -40 5 -40 10 0 6 18 10
40 10 22 0 40 -4 40 -10z m900 0 c0 -5 -18 -10 -40 -10 -22 0 -40 5 -40 10 0
6 18 10 40 10 22 0 40 -4 40 -10z m-1020 -20 c0 -5 -18 -10 -41 -10 -24 0 -38
4 -34 10 3 6 22 10 41 10 19 0 34 -4 34 -10z m1125 0 c4 -6 -8 -10 -29 -10
-20 0 -36 5 -36 10 0 6 13 10 29 10 17 0 33 -4 36 -10z m-1243 -35 c-2 -14 1
-32 8 -40 7 -8 8 -15 4 -15 -5 0 -18 12 -29 27 -11 14 -26 32 -33 40 -11 11
-8 13 21 13 31 0 34 -2 29 -25z m1338 3 c-11 -12 -20 -25 -20 -30 0 -22 -18
-4 -22 22 -4 28 -3 30 29 30 l34 0 -21 -22z m-238 -259 c-46 -55 -52 -62 -57
-57 -3 2 4 14 15 26 11 12 20 28 20 37 0 8 9 15 20 15 19 0 19 -1 2 -21z
m-866 -26 c13 -15 21 -29 19 -31 -4 -5 -20 10 -44 41 -22 28 0 19 25 -10z m64
-107 c0 -19 -4 -38 -10 -41 -6 -4 -10 10 -10 34 0 23 5 41 10 41 6 0 10 -15
10 -34z m380 24 c0 -5 -4 -10 -10 -10 -5 0 -10 5 -10 10 0 6 5 10 10 10 6 0
10 -4 10 -10z m340 -50 c0 -33 4 -60 10 -60 6 0 10 -28 10 -64 0 -36 5 -68 10
-71 6 -3 10 -31 10 -61 0 -34 -4 -53 -10 -49 -5 3 -10 15 -10 26 0 10 -4 19
-10 19 -5 0 -10 7 -10 15 0 8 -4 24 -10 35 -5 11 -14 29 -20 40 -5 11 -10 27
-10 35 0 8 -4 15 -10 15 -5 0 -10 9 -10 19 0 11 -4 23 -10 26 -5 3 -10 17 -10
31 0 13 -4 24 -10 24 -5 0 -10 9 -10 20 0 11 -4 20 -10 20 -5 0 -10 8 -10 17
0 14 3 14 20 -5 11 -12 20 -26 20 -32 0 -19 29 -42 48 -38 14 3 16 12 14 51
-3 29 0 47 7 47 7 0 11 -23 11 -60z m-565 30 c3 -5 1 -10 -4 -10 -6 0 -11 5
-11 10 0 6 2 10 4 10 3 0 8 -4 11 -10z m251 -24 c8 -8 14 -21 14 -28 0 -8 9
-20 20 -28 11 -8 20 -21 20 -30 0 -9 9 -22 20 -30 11 -8 20 -21 20 -30 0 -9 9
-22 20 -30 11 -8 20 -21 20 -30 0 -9 9 -22 20 -30 11 -8 20 -20 20 -28 0 -7 9
-22 20 -34 11 -12 20 -28 20 -35 0 -7 4 -13 8 -13 4 0 15 -13 25 -29 l17 -29
-25 11 c-14 7 -25 15 -25 20 0 4 -9 7 -20 7 -11 0 -20 5 -20 10 0 6 -9 10 -20
10 -11 0 -20 4 -20 8 0 5 -17 17 -37 27 -28 14 -33 20 -20 22 18 5 25 63 7 63
-5 0 -10 9 -10 20 0 11 -4 20 -10 20 -5 0 -10 9 -10 20 0 11 -4 20 -10 20 -5
0 -10 9 -10 20 0 11 -9 35 -20 55 -11 20 -20 42 -20 50 0 8 -4 15 -10 15 -5 0
-10 5 -10 10 0 14 9 12 26 -4z m-220 -20 c8 -8 14 -21 14 -28 0 -8 9 -20 20
-28 11 -8 20 -21 20 -30 0 -9 9 -22 20 -30 11 -8 20 -19 20 -25 0 -22 48 -65
74 -65 14 0 26 -4 26 -10 0 -5 -18 -10 -40 -10 -22 0 -40 -4 -40 -10 0 -5 -9
-10 -20 -10 -15 0 -20 7 -20 29 0 16 -13 55 -30 86 -16 31 -30 63 -30 71 0 8
-4 14 -10 14 -5 0 -10 9 -10 20 0 11 -4 20 -10 20 -5 0 -10 5 -10 10 0 14 9
12 26 -4z m-181 -81 c19 -19 35 -40 35 -47 0 -8 9 -20 20 -28 11 -8 20 -20 20
-26 0 -6 13 -24 28 -40 16 -17 31 -38 35 -47 4 -10 18 -17 34 -18 27 0 28 -1
6 -11 -13 -6 -23 -15 -23 -20 0 -4 -9 -8 -20 -8 -11 0 -20 -4 -20 -10 0 -5 -3
-10 -7 -10 -9 0 -33 49 -33 67 0 7 -4 13 -10 13 -5 0 -10 9 -10 20 0 11 -4 20
-10 20 -5 0 -10 9 -10 20 0 11 -4 20 -10 20 -5 0 -10 9 -10 20 0 16 -7 20 -30
20 -29 0 -30 1 -30 50 0 28 2 50 5 50 3 0 21 -16 40 -35z m-54 -188 c-8 -8
-11 2 -11 34 0 59 14 73 18 19 2 -24 -2 -48 -7 -53z m469 33 c0 -5 -4 -10 -10
-10 -5 0 -10 5 -10 10 0 6 5 10 10 10 6 0 10 -4 10 -10z m-457 -173 l22 -4
-22 -8 c-13 -4 -23 -11 -23 -16 0 -5 -4 -9 -10 -9 -12 0 -14 123 -2 134 4 4 8
-15 10 -42 3 -43 6 -51 25 -55z m817 27 c0 -36 -4 -64 -10 -64 -5 0 -10 4 -10
9 0 5 -10 12 -22 16 l-23 8 23 4 c19 4 22 11 22 54 0 31 4 48 10 44 6 -3 10
-35 10 -71z m-700 26 c0 -5 -4 -10 -10 -10 -5 0 -10 5 -10 10 0 6 5 10 10 10
6 0 10 -4 10 -10z"/>
<path d="M880 4550 c-8 -5 -36 -10 -62 -10 -27 0 -48 -4 -48 -10 0 -5 -15 -10
-34 -10 -19 0 -37 -4 -40 -8 -3 -4 -28 -14 -55 -22 -28 -7 -51 -17 -51 -22 0
-4 -9 -8 -20 -8 -11 0 -20 -4 -20 -10 0 -5 -9 -10 -20 -10 -11 0 -20 -4 -20
-10 0 -5 -6 -10 -13 -10 -7 0 -23 -9 -35 -20 -12 -11 -25 -20 -30 -20 -4 0
-25 -16 -46 -35 -21 -19 -42 -35 -45 -35 -11 0 -75 -64 -107 -106 -16 -21 -37
-46 -46 -55 -10 -9 -18 -21 -18 -28 0 -6 -4 -11 -10 -11 -5 0 -10 -7 -10 -15
0 -8 -4 -15 -10 -15 -5 0 -10 -9 -10 -20 0 -11 -4 -20 -10 -20 -5 0 -10 -7
-10 -15 0 -8 -4 -15 -10 -15 -5 0 -10 -9 -10 -20 0 -11 -4 -20 -10 -20 -5 0
-10 -11 -10 -25 0 -14 -4 -25 -10 -25 -5 0 -10 -9 -10 -19 0 -11 -5 -23 -10
-26 -6 -3 -10 -19 -10 -35 0 -15 -6 -30 -12 -32 -19 -7 -19 -3031 -1 -3049 7
-7 13 -23 13 -35 0 -13 5 -26 10 -29 6 -3 10 -15 10 -26 0 -10 5 -19 10 -19 6
0 10 -9 10 -19 0 -23 40 -101 52 -101 4 0 8 -9 8 -20 0 -11 5 -20 10 -20 6 0
10 -7 10 -15 0 -8 5 -15 10 -15 6 0 10 -5 10 -11 0 -7 8 -19 18 -28 10 -9 29
-32 42 -51 28 -41 109 -120 123 -120 5 0 22 -13 37 -30 15 -16 33 -30 39 -30
7 0 21 -9 33 -20 12 -11 28 -20 35 -20 7 0 13 -4 13 -10 0 -5 9 -10 20 -10 11
0 20 -4 20 -10 0 -5 9 -10 20 -10 11 0 20 -4 20 -8 0 -5 23 -15 51 -22 27 -8
52 -18 55 -22 3 -4 21 -8 40 -8 19 0 34 -4 34 -10 0 -5 22 -10 49 -10 28 0 53
-5 56 -10 4 -7 756 -10 2224 -10 l2217 0 37 34 c36 33 37 36 37 105 0 63 -3
75 -25 96 -13 14 -31 25 -39 25 -8 0 -18 5 -21 10 -4 7 -755 10 -2221 10
-1469 0 -2214 3 -2214 10 0 6 -13 10 -29 10 -17 0 -33 5 -36 10 -3 6 -17 10
-31 10 -13 0 -24 5 -24 10 0 6 -6 10 -13 10 -18 0 -67 24 -67 33 0 4 -9 7 -20
7 -11 0 -20 5 -20 10 0 6 -7 10 -15 10 -9 0 -31 15 -50 34 -19 19 -47 42 -64
52 -16 9 -35 29 -43 43 -7 14 -25 38 -40 53 -16 14 -28 32 -28 40 0 7 -9 20
-20 28 -11 8 -20 22 -20 32 0 10 -4 18 -10 18 -5 0 -10 9 -10 20 0 11 -4 20
-10 20 -5 0 -10 11 -10 24 0 14 -4 28 -10 31 -6 3 -10 19 -10 36 0 16 -4 29
-10 29 -5 0 -10 20 -10 44 0 25 -4 48 -10 51 -14 9 -14 2631 0 2640 5 3 10 26
10 51 0 24 5 44 10 44 6 0 10 13 10 29 0 17 4 33 10 36 6 3 10 17 10 31 0 13
5 24 10 24 6 0 10 9 10 20 0 11 5 20 10 20 6 0 10 8 10 18 0 10 9 24 20 32 11
8 20 20 20 27 0 28 196 223 225 223 8 0 15 5 15 10 0 6 9 10 20 10 11 0 20 5
20 10 0 6 9 10 20 10 11 0 20 5 20 10 0 6 9 10 20 10 11 0 20 5 20 10 0 6 14
10 30 10 17 0 30 5 30 10 0 6 15 10 34 10 19 0 38 5 41 10 4 7 1240 10 3676
10 2439 0 3669 3 3669 10 0 6 7 10 15 10 9 0 27 11 40 25 22 21 25 33 25 96 0
69 -1 72 -37 105 l-37 34 -3670 0 c-2353 0 -3676 -4 -3686 -10z"/>
<path d="M9756 4547 c-56 -34 -66 -53 -66 -124 0 -57 4 -72 24 -95 13 -16 30
-28 39 -28 9 0 19 -4 22 -10 4 -7 1238 -10 3670 -10 2432 0 3666 -3 3670 -10
3 -6 22 -10 41 -10 19 0 34 -4 34 -10 0 -5 14 -10 30 -10 17 0 30 -4 30 -10 0
-5 9 -10 20 -10 11 0 20 -4 20 -10 0 -5 9 -10 20 -10 11 0 20 -4 20 -10 0 -5
9 -10 20 -10 11 0 20 -4 20 -10 0 -5 7 -10 15 -10 29 0 225 -195 225 -223 0
-7 9 -19 20 -27 11 -8 20 -22 20 -32 0 -10 5 -18 10 -18 6 0 10 -9 10 -20 0
-11 5 -20 10 -20 6 0 10 -11 10 -24 0 -14 5 -28 10 -31 6 -3 10 -19 10 -36 0
-16 5 -29 10 -29 6 0 10 -20 10 -44 0 -25 5 -48 10 -51 14 -9 14 -2631 0
-2640 -5 -3 -10 -26 -10 -51 0 -24 -4 -44 -10 -44 -5 0 -10 -13 -10 -29 0 -17
-4 -33 -10 -36 -5 -3 -10 -17 -10 -31 0 -13 -4 -24 -10 -24 -5 0 -10 -9 -10
-20 0 -11 -4 -20 -10 -20 -5 0 -10 -8 -10 -18 0 -10 -9 -24 -20 -32 -11 -8
-20 -21 -20 -28 0 -8 -12 -26 -28 -40 -15 -15 -33 -39 -40 -53 -8 -14 -27 -34
-43 -43 -17 -10 -45 -33 -64 -52 -19 -19 -41 -34 -50 -34 -8 0 -15 -4 -15 -10
0 -5 -9 -10 -20 -10 -11 0 -20 -3 -20 -7 0 -9 -49 -33 -67 -33 -7 0 -13 -4
-13 -10 0 -5 -11 -10 -24 -10 -14 0 -28 -4 -31 -10 -3 -5 -19 -10 -36 -10 -16
0 -29 -4 -29 -10 0 -7 -747 -10 -2220 -10 -1473 0 -2220 -3 -2220 -10 0 -5
-10 -10 -22 -10 -29 -1 -58 -22 -58 -44 0 -9 -4 -16 -10 -16 -14 0 -12 -106 3
-132 19 -34 34 -48 51 -48 9 0 16 -4 16 -10 0 -14 4446 -14 4455 0 3 6 28 10
56 10 27 0 49 5 49 10 0 6 15 10 34 10 19 0 37 4 40 8 3 4 28 14 55 22 28 7
51 17 51 22 0 4 9 8 20 8 11 0 20 5 20 10 0 6 9 10 20 10 11 0 20 5 20 10 0 6
6 10 13 10 7 0 23 9 35 20 12 11 26 20 33 20 6 0 24 13 39 30 15 16 33 30 38
30 17 0 142 130 142 148 0 4 9 14 20 22 11 8 20 20 20 27 0 7 5 13 10 13 6 0
10 7 10 15 0 8 5 15 10 15 6 0 10 9 10 20 0 11 4 20 8 20 12 0 52 78 52 101 0
10 5 19 10 19 6 0 10 9 10 20 0 11 5 20 10 20 6 0 10 13 10 28 0 15 6 34 13
41 18 18 18 3042 0 3049 -7 2 -13 17 -13 32 0 16 -4 32 -10 35 -5 3 -10 15
-10 26 0 10 -4 19 -10 19 -5 0 -10 11 -10 25 0 14 -4 25 -10 25 -5 0 -10 9
-10 20 0 11 -4 20 -10 20 -5 0 -10 7 -10 15 0 8 -4 15 -10 15 -5 0 -10 9 -10
20 0 11 -4 20 -10 20 -5 0 -10 7 -10 15 0 8 -4 15 -10 15 -5 0 -10 5 -10 11 0
7 -8 19 -18 28 -9 9 -30 34 -46 55 -32 42 -96 106 -107 106 -3 0 -24 16 -45
35 -21 19 -42 35 -46 35 -5 0 -18 9 -30 20 -12 11 -28 20 -35 20 -7 0 -13 5
-13 10 0 6 -9 10 -20 10 -11 0 -20 5 -20 10 0 6 -9 10 -20 10 -11 0 -20 5 -20
10 0 6 -9 10 -20 10 -11 0 -30 5 -43 12 -49 25 -58 28 -87 28 -16 0 -30 4 -30
9 0 5 -26 12 -57 16 -32 4 -1709 9 -3728 11 -2829 2 -3674 0 -3689 -9z"/>
<path d="M3880 3340 c-117 -11 -215 -47 -285 -105 -17 -14 -42 -35 -57 -47
-15 -13 -28 -29 -28 -35 0 -7 -4 -13 -10 -13 -5 0 -10 -7 -10 -15 0 -8 -3 -15
-7 -15 -9 0 -33 -49 -33 -67 0 -7 -4 -13 -10 -13 -5 0 -10 -13 -10 -30 0 -16
-4 -30 -9 -30 -11 0 -21 -68 -27 -192 -4 -66 -2 -98 5 -98 7 0 11 -24 11 -60
0 -33 4 -60 10 -60 6 0 10 -13 10 -30 0 -16 5 -30 10 -30 6 0 10 -6 10 -13 0
-18 24 -67 33 -67 4 0 7 -4 7 -10 0 -11 26 -45 55 -71 56 -50 81 -69 93 -69 6
0 12 -4 12 -10 0 -5 9 -10 20 -10 11 0 20 -4 20 -10 0 -5 9 -10 19 -10 11 0
23 -4 26 -10 3 -5 17 -10 31 -10 13 0 24 -4 24 -8 0 -5 23 -15 51 -22 27 -8
52 -18 55 -22 3 -4 16 -8 30 -8 13 0 24 -4 24 -8 0 -5 23 -15 50 -22 28 -7 50
-16 50 -20 0 -4 23 -13 50 -20 28 -7 50 -17 50 -22 0 -4 9 -8 20 -8 11 0 20
-4 20 -9 0 -5 9 -13 20 -16 28 -9 120 -100 120 -119 0 -9 5 -16 10 -16 6 0 10
-13 10 -30 0 -16 5 -30 10 -30 6 0 10 -43 10 -110 0 -67 -4 -110 -10 -110 -5
0 -10 -13 -10 -30 0 -16 -4 -30 -8 -30 -5 0 -15 -12 -23 -27 -19 -38 -55 -73
-74 -73 -8 0 -15 -4 -15 -10 0 -5 -9 -10 -20 -10 -11 0 -20 -4 -20 -10 0 -5
-11 -10 -24 -10 -14 0 -28 -4 -31 -10 -8 -13 -265 -13 -265 0 0 6 -13 10 -28
10 -16 0 -34 8 -42 20 -8 11 -20 20 -28 20 -18 0 -62 46 -62 65 0 8 -3 15 -7
15 -9 0 -33 49 -33 67 0 7 -4 13 -10 13 -5 0 -10 18 -10 40 0 22 -4 40 -10 40
-6 0 -10 36 -10 88 0 55 -4 92 -12 100 -17 17 -239 17 -256 0 -15 -15 -16
-138 -2 -138 6 0 10 -28 10 -65 0 -37 4 -65 10 -65 6 0 10 -15 10 -34 0 -19 5
-38 10 -41 6 -3 10 -17 10 -31 0 -13 5 -24 10 -24 6 0 10 -6 10 -14 0 -19 42
-96 52 -96 4 0 8 -7 8 -15 0 -8 5 -15 10 -15 6 0 10 -5 10 -11 0 -14 70 -79
85 -79 6 0 17 -9 25 -20 8 -11 22 -20 32 -20 10 0 18 -4 18 -10 0 -5 9 -10 19
-10 11 0 23 -4 26 -10 3 -5 17 -10 30 -10 13 0 27 -4 30 -10 3 -5 26 -10 50
-10 24 0 47 -4 50 -10 8 -13 232 -13 240 0 3 6 30 10 60 10 30 0 57 4 60 10 3
5 19 10 35 10 16 0 32 5 35 10 3 6 15 10 26 10 10 0 19 5 19 10 0 6 9 10 20
10 11 0 20 5 20 10 0 6 7 10 15 10 9 0 26 10 39 23 12 12 37 33 54 47 18 14
32 30 32 35 0 6 9 17 20 25 11 8 20 22 20 32 0 10 5 18 10 18 6 0 10 9 10 20
0 11 5 20 10 20 6 0 10 9 10 19 0 11 5 23 10 26 6 3 10 21 10 40 0 19 5 37 10
40 6 4 10 68 10 160 0 92 -4 156 -10 160 -5 3 -10 22 -10 41 0 19 -4 34 -10
34 -5 0 -10 10 -10 23 0 12 -9 33 -20 47 -11 14 -20 31 -20 38 0 6 -4 12 -8
12 -5 0 -15 12 -23 27 -17 33 -74 93 -89 93 -5 0 -24 14 -42 30 -17 17 -37 30
-44 30 -8 0 -14 5 -14 10 0 6 -9 10 -20 10 -11 0 -20 5 -20 10 0 6 -9 10 -20
10 -11 0 -20 5 -20 10 0 6 -9 10 -20 10 -11 0 -20 5 -20 10 0 6 -13 10 -30 10
-16 0 -30 5 -30 10 0 6 -9 10 -19 10 -11 0 -23 5 -26 10 -3 6 -17 10 -31 10
-13 0 -24 5 -24 10 0 6 -13 10 -30 10 -16 0 -30 5 -30 10 0 6 -9 10 -19 10
-11 0 -23 5 -26 10 -3 6 -17 10 -31 10 -13 0 -24 5 -24 10 0 6 -13 10 -30 10
-16 0 -30 5 -30 10 0 6 -9 10 -20 10 -11 0 -20 5 -20 10 0 6 -7 10 -15 10 -36
0 -105 107 -105 160 0 16 -4 32 -10 35 -5 3 -10 35 -10 70 0 35 5 67 10 70 6
3 10 22 10 41 0 19 5 34 10 34 6 0 10 9 10 20 0 11 5 20 10 20 6 0 10 7 10 15
0 20 45 65 65 65 8 0 15 3 15 8 0 4 15 13 33 20 17 7 40 18 49 23 24 12 198
12 198 -1 0 -5 14 -10 30 -10 17 0 30 -4 30 -10 0 -5 6 -10 14 -10 19 0 106
-87 106 -106 0 -8 5 -14 10 -14 6 0 10 -13 10 -30 0 -16 5 -30 10 -30 6 0 10
-22 10 -50 0 -27 5 -50 10 -50 6 0 10 -13 10 -29 0 -37 12 -41 123 -41 140 0
137 -2 137 86 0 43 -4 74 -10 74 -5 0 -10 18 -10 40 0 22 -4 40 -10 40 -5 0
-10 11 -10 24 0 23 -52 134 -80 170 -60 77 -211 176 -267 176 -10 0 -23 4 -28
9 -14 12 -204 19 -295 11z"/>
<path d="M16570 3301 c-71 -27 -140 -82 -140 -111 0 -6 -4 -10 -10 -10 -5 0
-10 -9 -10 -19 0 -11 -4 -23 -10 -26 -5 -3 -10 -22 -10 -41 0 -20 -5 -45 -11
-56 -8 -14 -8 -23 0 -31 6 -6 11 -33 11 -59 0 -26 5 -48 10 -48 6 0 10 -7 10
-15 0 -17 84 -105 100 -105 5 0 10 -4 10 -8 0 -4 23 -16 51 -26 56 -21 190
-19 212 3 6 6 17 11 24 11 19 0 123 106 123 125 0 8 5 15 10 15 6 0 10 15 10
34 0 19 5 38 10 41 6 3 10 26 10 51 0 24 -4 44 -10 44 -5 0 -10 18 -10 40 0
22 -4 40 -10 40 -5 0 -10 7 -10 15 0 36 -117 135 -159 135 -11 0 -23 5 -26 10
-10 16 -125 10 -175 -9z m140 -71 c0 -5 12 -10 26 -10 14 0 32 -6 40 -14 20
-21 17 -29 -5 -16 -11 5 -61 10 -111 10 -58 0 -89 4 -85 10 3 6 17 10 31 10
13 0 24 5 24 10 0 6 18 10 40 10 22 0 40 -4 40 -10z m-160 -210 l0 -160 40 0
40 0 0 70 c0 57 3 70 16 70 9 0 18 -9 21 -20 3 -11 9 -20 14 -20 5 0 9 -8 9
-18 0 -10 9 -24 20 -32 11 -8 20 -22 20 -32 0 -14 9 -18 43 -19 23 -1 32 -4
20 -6 -13 -2 -23 -9 -23 -14 0 -5 -9 -9 -20 -9 -11 0 -20 -4 -20 -10 0 -6 -27
-10 -60 -10 -33 0 -60 4 -60 10 0 6 -9 10 -20 10 -11 0 -20 5 -20 10 0 6 -8
10 -18 10 -10 0 -25 12 -33 28 -8 15 -17 29 -20 32 -3 3 -11 15 -18 27 -14 27
-15 163 -1 163 6 0 10 7 10 15 0 16 39 63 53 64 4 1 7 -71 7 -159z m145 110
c3 -5 17 -10 31 -10 16 0 24 -6 24 -18 0 -30 -21 -42 -72 -42 l-48 0 0 40 c0
38 2 40 29 40 17 0 33 -4 36 -10z m163 -17 c6 -15 12 -37 12 -50 0 -13 5 -23
10 -23 6 0 10 -7 10 -15 0 -8 -4 -15 -10 -15 -5 0 -10 -18 -10 -40 0 -22 -4
-40 -9 -40 -5 0 -13 -9 -16 -20 -3 -11 -13 -20 -21 -20 -8 0 -14 9 -14 20 0
11 -4 20 -8 20 -5 0 -15 12 -23 28 -8 15 -18 30 -24 34 -6 4 -2 8 8 8 10 0 29
11 42 25 19 18 25 35 25 70 0 51 9 57 28 18z"/>
<path d="M2283 3283 c-7 -15 -13 -37 -13 -50 0 -13 -4 -23 -10 -23 -5 0 -10
-15 -10 -34 0 -19 -4 -38 -10 -41 -5 -3 -10 -19 -10 -36 0 -16 -4 -29 -10 -29
-5 0 -10 -18 -10 -40 0 -22 -4 -40 -10 -40 -5 0 -10 -13 -10 -30 0 -16 -4 -30
-10 -30 -5 0 -10 -18 -10 -40 0 -22 -4 -40 -10 -40 -5 0 -10 -13 -10 -29 0
-17 -4 -33 -10 -36 -5 -3 -10 -22 -10 -41 0 -19 -4 -34 -10 -34 -5 0 -10 -13
-10 -29 0 -17 -4 -33 -10 -36 -5 -3 -10 -22 -10 -41 0 -19 -4 -34 -10 -34 -5
0 -10 -13 -10 -29 0 -17 -4 -33 -10 -36 -5 -3 -10 -22 -10 -41 0 -19 -4 -34
-10 -34 -5 0 -10 -13 -10 -29 0 -17 -4 -33 -10 -36 -5 -3 -10 -22 -10 -41 0
-19 -4 -34 -10 -34 -5 0 -10 -13 -10 -29 0 -17 -4 -33 -10 -36 -5 -3 -10 -22
-10 -41 0 -19 -4 -34 -10 -34 -5 0 -10 -13 -10 -29 0 -17 -4 -33 -10 -36 -5
-3 -10 -22 -10 -41 0 -19 -4 -34 -10 -34 -5 0 -10 -13 -10 -29 0 -17 -4 -33
-10 -36 -5 -3 -10 -22 -10 -41 0 -19 -4 -34 -10 -34 -5 0 -10 -13 -10 -29 0
-17 -4 -33 -10 -36 -5 -3 -10 -22 -10 -41 0 -19 -4 -34 -10 -34 -5 0 -10 -15
-10 -34 0 -19 -4 -38 -10 -41 -5 -3 -10 -19 -10 -36 0 -16 -4 -29 -10 -29 -5
0 -10 -15 -10 -34 0 -19 -4 -38 -10 -41 -5 -3 -10 -19 -10 -36 0 -16 -4 -29
-10 -29 -5 0 -10 -15 -10 -34 0 -19 -4 -38 -10 -41 -5 -3 -10 -19 -10 -36 0
-16 -4 -29 -10 -29 -5 0 -10 -15 -10 -34 0 -19 -4 -38 -10 -41 -5 -3 -10 -15
-10 -26 0 -18 8 -19 150 -19 142 0 150 1 150 19 0 11 4 23 10 26 5 3 10 22 10
41 0 19 5 34 10 34 6 0 10 18 10 40 0 22 5 40 10 40 6 0 10 18 10 40 0 22 5
40 10 40 6 0 10 18 10 40 0 22 5 40 10 40 6 0 10 18 10 40 0 22 5 40 10 40 6
0 10 15 10 34 0 19 5 38 10 41 6 3 10 21 10 40 0 21 6 35 16 39 9 3 147 6 308
6 313 0 316 0 316 -51 0 -15 5 -31 10 -34 6 -3 10 -22 10 -41 0 -19 5 -34 10
-34 6 0 10 -15 10 -34 0 -19 5 -38 10 -41 6 -3 10 -19 10 -36 0 -16 5 -29 10
-29 6 0 10 -15 10 -34 0 -19 5 -38 10 -41 6 -3 10 -22 10 -41 0 -19 5 -34 10
-34 6 0 10 -16 10 -35 0 -19 4 -35 9 -35 6 0 11 -17 13 -37 l3 -38 148 -3 147
-3 0 41 c0 22 -4 40 -10 40 -5 0 -10 18 -10 40 0 22 -4 40 -10 40 -5 0 -10 14
-10 30 0 17 -4 30 -10 30 -5 0 -10 18 -10 40 0 22 -4 40 -10 40 -5 0 -10 13
-10 29 0 17 -4 33 -10 36 -5 3 -10 22 -10 41 0 19 -4 34 -10 34 -5 0 -10 15
-10 34 0 19 -4 38 -10 41 -5 3 -10 19 -10 36 0 16 -4 29 -10 29 -5 0 -10 18
-10 40 0 22 -4 40 -10 40 -5 0 -10 14 -10 30 0 17 -4 30 -10 30 -5 0 -10 18
-10 40 0 22 -4 40 -10 40 -5 0 -10 14 -10 30 0 17 -4 30 -10 30 -5 0 -10 18
-10 40 0 22 -4 40 -10 40 -5 0 -10 15 -10 34 0 19 -4 38 -10 41 -5 3 -10 19
-10 36 0 16 -4 29 -10 29 -5 0 -10 15 -10 34 0 19 -4 38 -10 41 -5 3 -10 19
-10 36 0 16 -4 29 -10 29 -5 0 -10 18 -10 40 0 22 -4 40 -10 40 -5 0 -10 14
-10 30 0 17 -4 30 -10 30 -5 0 -10 18 -10 40 0 22 -4 40 -10 40 -5 0 -10 13
-10 29 0 17 -4 33 -10 36 -5 3 -10 22 -10 41 0 19 -4 34 -10 34 -5 0 -10 18
-10 40 0 22 -4 40 -10 40 -5 0 -10 14 -10 30 0 17 -4 30 -10 30 -5 0 -10 18
-10 40 0 22 -4 40 -10 40 -5 0 -10 13 -10 29 0 17 -4 33 -10 36 -5 3 -10 22
-10 41 0 19 -4 34 -10 34 -5 0 -10 13 -10 29 0 17 -4 33 -10 36 -5 3 -10 22
-10 41 0 19 -4 34 -10 34 -5 0 -10 9 -10 20 0 19 -7 20 -167 20 l-168 0 -12
-27z m187 -313 c0 -21 5 -42 10 -45 6 -3 10 -21 10 -40 0 -19 5 -37 10 -40 6
-3 10 -24 10 -46 0 -21 5 -39 10 -39 6 0 10 -18 10 -40 0 -22 5 -40 10 -40 6
0 10 -18 10 -40 0 -22 5 -40 10 -40 6 0 10 -18 10 -40 0 -22 5 -40 10 -40 6 0
10 -18 10 -39 0 -22 5 -43 10 -46 6 -3 10 -21 10 -40 0 -19 5 -37 10 -40 6 -3
10 -24 10 -45 0 -21 5 -42 10 -45 6 -3 10 -24 10 -46 0 -21 5 -39 10 -39 6 0
10 -18 10 -40 0 -22 5 -40 10 -40 6 0 10 -16 10 -35 l0 -35 -240 0 -240 0 0
29 c0 17 5 33 10 36 6 3 10 21 10 40 0 19 5 37 10 40 6 3 10 21 10 40 0 19 5
37 10 40 6 3 10 21 10 40 0 19 5 37 10 40 6 3 10 24 10 46 0 21 5 39 10 39 6
0 10 18 10 40 0 22 5 40 10 40 6 0 10 18 10 40 0 22 5 40 10 40 6 0 10 18 10
40 0 22 5 40 10 40 6 0 10 18 10 40 0 22 5 40 10 40 6 0 10 18 10 40 0 22 5
40 10 40 6 0 10 18 10 40 0 22 5 40 10 40 6 0 10 18 10 40 0 22 5 40 10 40 6
0 10 9 10 21 0 11 5 17 10 14 6 -3 10 -24 10 -45z"/>
<path d="M4742 3298 c-8 -8 -12 -50 -12 -125 l0 -113 270 0 270 0 0 -935 0
-935 140 0 140 0 0 935 0 935 270 0 271 0 -3 123 -3 122 -665 3 c-510 2 -669
-1 -678 -10z"/>
<path d="M6310 2250 l0 -1060 130 0 130 0 0 450 0 450 240 0 c153 0 240 -4
240 -10 0 -5 8 -10 17 -10 47 0 163 -100 163 -140 0 -5 5 -10 10 -10 6 0 10
-11 10 -25 0 -14 5 -25 10 -25 6 0 10 -18 10 -40 0 -22 5 -40 10 -40 6 0 10
-65 10 -174 0 -106 4 -177 10 -181 6 -3 10 -33 10 -66 0 -33 4 -59 10 -59 6 0
10 -15 10 -34 0 -19 5 -38 10 -41 6 -3 10 -15 10 -26 0 -18 8 -19 140 -19
l140 0 0 40 c0 22 -9 55 -20 75 -11 20 -20 47 -20 60 0 14 -4 25 -10 25 -6 0
-10 58 -10 154 0 93 -4 157 -10 161 -6 4 -10 53 -10 116 0 66 -4 109 -10 109
-5 0 -10 14 -10 30 0 17 -4 30 -10 30 -5 0 -10 10 -10 23 0 13 -9 33 -20 45
-11 12 -20 26 -20 32 0 16 -88 100 -105 100 -8 0 -15 5 -15 10 0 6 -7 10 -16
10 -15 0 -44 23 -44 34 0 3 7 6 15 6 74 0 245 200 245 286 0 13 5 24 10 24 6
0 10 65 10 175 0 110 -4 175 -10 175 -5 0 -10 14 -10 30 0 17 -4 30 -10 30 -5
0 -10 14 -10 30 0 17 -4 30 -9 30 -5 0 -16 15 -25 34 -40 84 -190 193 -300
219 -77 17 -241 25 -563 26 l-323 1 0 -1060z m760 800 c0 -5 14 -10 30 -10 17
0 30 -4 30 -10 0 -5 7 -10 15 -10 20 0 105 -85 105 -105 0 -8 5 -15 10 -15 6
0 10 -9 10 -20 0 -11 5 -20 10 -20 6 0 10 -55 10 -145 0 -90 -4 -145 -10 -145
-5 0 -10 -9 -10 -20 0 -11 -4 -20 -10 -20 -5 0 -10 -7 -10 -15 0 -9 -9 -25
-20 -37 -11 -12 -20 -28 -20 -35 0 -7 -6 -13 -13 -13 -7 0 -23 -9 -35 -20 -12
-11 -28 -20 -37 -20 -8 0 -15 -4 -15 -10 0 -5 -11 -10 -24 -10 -14 0 -28 -4
-31 -10 -4 -6 -97 -10 -246 -10 l-239 0 0 355 0 355 250 0 c160 0 250 -4 250
-10z"/>
<path d="M8423 3295 c-7 -8 -13 -28 -13 -44 0 -16 -4 -33 -10 -36 -5 -3 -10
-19 -10 -36 0 -16 -4 -29 -10 -29 -5 0 -10 -15 -10 -34 0 -19 -4 -38 -10 -41
-5 -3 -10 -19 -10 -36 0 -16 -4 -29 -10 -29 -5 0 -10 -18 -10 -40 0 -22 -4
-40 -10 -40 -5 0 -10 -13 -10 -30 0 -16 -4 -30 -10 -30 -5 0 -10 -18 -10 -40
0 -22 -4 -40 -10 -40 -5 0 -10 -13 -10 -30 0 -16 -4 -30 -10 -30 -5 0 -10 -18
-10 -40 0 -22 -4 -40 -10 -40 -5 0 -10 -13 -10 -30 0 -16 -4 -30 -10 -30 -5 0
-10 -18 -10 -40 0 -22 -4 -40 -10 -40 -5 0 -10 -13 -10 -30 0 -16 -4 -30 -10
-30 -5 0 -10 -18 -10 -40 0 -22 -4 -40 -10 -40 -5 0 -10 -13 -10 -30 0 -16 -4
-30 -10 -30 -5 0 -10 -18 -10 -40 0 -22 -4 -40 -10 -40 -5 0 -10 -13 -10 -30
0 -16 -4 -30 -10 -30 -5 0 -10 -18 -10 -40 0 -22 -4 -40 -10 -40 -5 0 -10 -13
-10 -30 0 -16 -4 -30 -10 -30 -5 0 -10 -18 -10 -40 0 -22 -4 -40 -10 -40 -5 0
-10 -13 -10 -30 0 -16 -4 -30 -10 -30 -5 0 -10 -18 -10 -40 0 -22 -4 -40 -10
-40 -5 0 -10 -13 -10 -29 0 -17 -4 -33 -10 -36 -5 -3 -10 -22 -10 -41 0 -19
-4 -34 -10 -34 -5 0 -10 -13 -10 -29 0 -17 -4 -33 -10 -36 -5 -3 -10 -22 -10
-41 0 -19 -4 -34 -10 -34 -5 0 -10 -13 -10 -29 0 -17 -4 -33 -10 -36 -5 -3
-10 -22 -10 -41 0 -19 -4 -34 -10 -34 -5 0 -10 -13 -10 -29 0 -17 -4 -33 -10
-36 -5 -3 -10 -22 -10 -41 0 -19 -4 -34 -10 -34 -5 0 -10 -13 -10 -30 l0 -30
150 0 150 0 0 30 c0 17 5 30 10 30 6 0 10 18 10 40 0 22 5 40 10 40 6 0 10 18
10 40 0 22 5 40 10 40 6 0 10 15 10 34 0 19 5 38 10 41 6 3 10 22 10 41 0 19
5 34 10 34 6 0 10 18 10 40 0 22 5 40 10 40 6 0 10 18 10 40 0 22 5 40 10 40
6 0 10 16 10 35 l0 35 306 0 c341 0 333 2 334 -67 0 -18 5 -33 10 -33 6 0 10
-15 10 -34 0 -19 5 -38 10 -41 6 -3 10 -19 10 -36 0 -16 5 -29 10 -29 6 0 10
-18 10 -40 0 -22 5 -40 10 -40 6 0 10 -16 10 -35 0 -19 5 -35 10 -35 6 0 10
-16 10 -35 0 -19 5 -35 10 -35 6 0 10 -15 10 -34 0 -19 5 -38 10 -41 6 -3 10
-19 10 -36 l0 -29 150 0 150 0 0 34 c0 19 -4 38 -10 41 -5 3 -10 19 -10 36 0
16 -4 29 -10 29 -5 0 -10 18 -10 40 0 22 -4 40 -10 40 -5 0 -10 14 -10 30 0
17 -4 30 -10 30 -5 0 -10 18 -10 40 0 22 -4 40 -10 40 -5 0 -10 14 -10 30 0
17 -4 30 -10 30 -5 0 -10 18 -10 40 0 22 -4 40 -10 40 -5 0 -10 15 -10 34 0
19 -4 38 -10 41 -5 3 -10 19 -10 36 0 16 -4 29 -10 29 -5 0 -10 15 -10 34 0
19 -4 38 -10 41 -5 3 -10 19 -10 36 0 16 -4 29 -10 29 -5 0 -10 18 -10 40 0
22 -4 40 -10 40 -5 0 -10 14 -10 30 0 17 -4 30 -10 30 -5 0 -10 18 -10 40 0
22 -4 40 -10 40 -5 0 -10 13 -10 29 0 17 -4 33 -10 36 -5 3 -10 22 -10 41 0
19 -4 34 -10 34 -5 0 -10 15 -10 34 0 19 -4 38 -10 41 -5 3 -10 19 -10 36 0
16 -4 29 -10 29 -5 0 -10 18 -10 40 0 22 -4 40 -10 40 -5 0 -10 14 -10 30 0
17 -4 30 -10 30 -5 0 -10 18 -10 40 0 22 -4 40 -10 40 -5 0 -10 14 -10 30 0
17 -4 30 -10 30 -5 0 -10 18 -10 40 0 22 -4 40 -9 40 -8 0 -11 11 -27 103 -3
20 -10 37 -15 37 -5 0 -9 18 -9 40 0 22 -4 40 -10 40 -5 0 -10 13 -10 29 0 17
-4 33 -10 36 -5 3 -10 22 -10 41 0 19 -4 34 -10 34 -5 0 -10 13 -10 29 0 17
-4 33 -10 36 -5 3 -10 17 -10 31 l0 24 -167 0 c-132 -1 -171 -4 -180 -15z
m187 -335 c0 -22 5 -40 10 -40 6 0 10 -18 10 -39 0 -22 5 -43 10 -46 6 -3 10
-26 10 -51 0 -24 5 -44 10 -44 6 0 10 -18 10 -40 0 -22 5 -40 10 -40 6 0 10
-18 10 -40 0 -22 5 -40 10 -40 6 0 10 -18 10 -40 0 -22 5 -40 10 -40 6 0 10
-18 10 -40 0 -22 5 -40 10 -40 6 0 10 -18 10 -39 0 -22 5 -43 10 -46 6 -3 10
-21 10 -40 0 -19 5 -37 10 -40 6 -3 10 -24 10 -46 0 -21 5 -39 10 -39 6 0 10
-18 10 -39 0 -22 5 -43 10 -46 6 -3 10 -17 10 -31 l0 -24 -240 0 -240 0 0 34
c0 19 5 38 10 41 6 3 10 24 10 46 0 21 5 39 10 39 6 0 10 18 10 39 0 22 5 43
10 46 6 3 10 21 10 40 0 19 5 37 10 40 6 3 10 21 10 40 0 19 5 37 10 40 6 3
10 21 10 40 0 19 5 37 10 40 6 3 10 24 10 46 0 21 5 39 10 39 6 0 10 18 10 40
0 22 5 40 10 40 6 0 10 18 10 40 0 22 5 40 10 40 6 0 10 18 10 40 0 22 5 40
10 40 6 0 10 18 10 40 0 22 5 40 10 40 6 0 10 18 10 40 0 33 3 40 20 40 17 0
20 -7 20 -40z"/>
<path d="M9590 2250 l0 -1060 560 0 560 0 0 120 0 120 -420 0 -420 0 0 924 c0
508 -3 931 -6 940 -5 14 -27 16 -140 16 l-134 0 0 -1060z"/>
<path d="M10950 2250 l0 -1060 140 0 140 0 0 1044 c0 574 -3 1051 -6 1060 -5
14 -27 16 -140 16 l-134 0 0 -1060z"/>
<path d="M11610 2250 l0 -1060 130 0 130 0 0 891 c0 591 3 888 10 884 6 -3 10
-19 10 -36 0 -16 5 -29 10 -29 6 0 10 -13 10 -30 0 -16 5 -30 10 -30 6 0 10
-13 10 -30 0 -16 5 -30 10 -30 6 0 10 -13 10 -30 0 -16 4 -30 8 -30 5 0 15
-23 22 -51 8 -27 18 -52 22 -55 4 -3 8 -16 8 -29 0 -13 5 -27 10 -30 6 -3 10
-17 10 -30 0 -13 5 -27 10 -30 6 -3 10 -17 10 -31 0 -13 5 -24 10 -24 6 0 10
-13 10 -30 0 -16 5 -30 10 -30 6 0 10 -13 10 -30 0 -16 5 -30 10 -30 6 0 10
-13 10 -30 0 -16 5 -30 10 -30 6 0 10 -11 10 -25 0 -14 5 -25 10 -25 6 0 10
-13 10 -30 0 -16 5 -30 10 -30 6 0 10 -11 10 -24 0 -14 5 -28 10 -31 6 -3 10
-17 10 -30 0 -13 5 -27 10 -30 6 -3 10 -17 10 -30 0 -13 5 -27 10 -30 6 -3 10
-17 10 -31 0 -13 5 -24 10 -24 6 0 10 -13 10 -30 0 -16 5 -30 10 -30 6 0 10
-11 10 -24 0 -14 5 -28 10 -31 6 -3 10 -17 10 -31 0 -13 5 -24 10 -24 6 0 10
-13 10 -30 0 -16 5 -30 10 -30 6 0 10 -13 10 -30 0 -16 5 -30 10 -30 6 0 10
-11 10 -24 0 -14 5 -28 10 -31 6 -3 10 -17 10 -30 0 -13 5 -27 10 -30 6 -3 10
-17 10 -31 0 -13 5 -24 10 -24 6 0 10 -11 10 -24 0 -14 5 -28 10 -31 6 -3 10
-17 10 -31 0 -13 5 -24 10 -24 6 0 10 -13 10 -30 0 -16 5 -30 10 -30 6 0 10
-13 10 -30 0 -16 5 -30 10 -30 6 0 10 -9 10 -20 0 -19 7 -20 210 -20 l210 0 0
1060 0 1060 -130 0 -130 0 0 -900 c0 -593 -3 -900 -10 -900 -5 0 -10 14 -10
30 0 17 -4 30 -10 30 -5 0 -10 14 -10 30 0 17 -4 30 -10 30 -5 0 -10 14 -10
30 0 17 -4 30 -10 30 -5 0 -10 9 -10 20 0 20 -4 29 -28 77 -7 13 -12 32 -12
43 0 11 -4 20 -10 20 -5 0 -10 14 -10 30 0 17 -4 30 -10 30 -5 0 -10 14 -10
30 0 17 -4 30 -10 30 -5 0 -10 14 -10 30 0 17 -4 30 -10 30 -5 0 -10 14 -10
30 0 17 -4 30 -10 30 -5 0 -10 14 -10 30 0 17 -4 30 -10 30 -5 0 -10 11 -10
24 0 14 -4 28 -10 31 -5 3 -10 17 -10 30 0 13 -4 27 -10 30 -5 3 -10 15 -10
26 0 10 -4 19 -10 19 -5 0 -10 14 -10 30 0 17 -4 30 -10 30 -5 0 -10 14 -10
30 0 17 -4 30 -10 30 -5 0 -10 14 -10 30 0 17 -4 30 -10 30 -5 0 -10 14 -10
30 0 17 -4 30 -10 30 -5 0 -10 14 -10 30 0 17 -4 30 -10 30 -5 0 -10 14 -10
30 0 17 -4 30 -10 30 -5 0 -10 9 -10 20 0 11 -4 29 -10 40 -5 11 -14 29 -20
40 -5 11 -10 29 -10 40 0 11 -4 20 -10 20 -5 0 -10 14 -10 30 0 17 -4 30 -10
30 -5 0 -10 14 -10 30 0 17 -4 30 -10 30 -5 0 -10 14 -10 30 0 17 -4 30 -10
30 -5 0 -10 14 -10 30 0 17 -4 30 -10 30 -5 0 -10 14 -10 30 0 17 -4 30 -10
30 -5 0 -10 14 -10 30 0 17 -4 30 -10 30 -5 0 -10 14 -10 30 0 17 -4 30 -10
30 -5 0 -10 11 -10 24 0 13 -7 27 -16 30 -9 3 -103 6 -210 6 l-194 0 0 -1060z"/>
<path d="M13302 3298 c-16 -16 -18 -1658 -2 -1658 6 0 10 -26 10 -59 0 -33 5
-63 10 -66 6 -3 10 -19 10 -36 0 -16 5 -29 10 -29 6 0 10 -9 10 -20 0 -11 5
-20 10 -20 6 0 10 -8 10 -18 0 -10 9 -24 20 -32 11 -8 20 -18 20 -22 0 -13 52
-68 64 -68 7 0 18 -9 26 -20 8 -11 22 -20 32 -20 10 0 18 -4 18 -10 0 -5 9
-10 20 -10 11 0 20 -4 20 -10 0 -5 9 -10 20 -10 11 0 20 -4 20 -9 0 -5 17 -12
38 -15 20 -4 64 -11 97 -17 90 -16 286 -22 298 -10 6 6 35 11 63 11 29 0 56 5
59 10 3 5 19 10 36 10 16 0 29 5 29 10 0 6 7 10 15 10 19 0 94 37 113 56 7 8
17 14 22 14 12 0 70 57 70 69 0 6 5 11 10 11 6 0 10 7 10 15 0 8 3 15 8 15 8
0 32 49 32 67 0 7 5 13 10 13 6 0 10 11 10 25 0 14 5 25 10 25 6 0 10 22 10
48 0 26 5 53 10 58 7 7 9 298 8 855 l-3 844 -135 0 -135 0 -3 -825 c-1 -529
-6 -828 -12 -834 -6 -6 -10 -25 -10 -43 0 -18 -4 -33 -10 -33 -5 0 -10 -7 -10
-15 0 -20 -105 -125 -125 -125 -8 0 -15 -4 -15 -10 0 -5 -11 -10 -24 -10 -14
0 -28 -4 -31 -10 -4 -6 -60 -10 -136 -10 -79 0 -129 4 -129 10 0 6 -13 10 -30
10 -16 0 -30 5 -30 10 0 6 -7 10 -15 10 -17 0 -92 73 -112 108 -7 12 -13 29
-13 37 0 8 -4 15 -10 15 -5 0 -10 14 -10 30 0 17 -4 30 -10 30 -7 0 -10 283
-10 830 l0 830 -128 0 c-86 0 -132 -4 -140 -12z"/>
<path d="M14854 3288 c-4 -13 -2 -24 5 -26 6 -2 11 -12 11 -23 0 -10 5 -19 10
-19 6 0 10 -6 10 -13 0 -7 9 -23 20 -35 11 -12 20 -28 20 -37 0 -8 5 -15 10
-15 6 0 10 -9 10 -20 0 -11 5 -20 10 -20 6 0 10 -9 10 -20 0 -11 5 -20 10 -20
6 0 10 -6 10 -13 0 -7 9 -23 20 -35 11 -12 20 -28 20 -37 0 -8 5 -15 10 -15 6
0 10 -9 10 -20 0 -11 5 -20 10 -20 6 0 10 -9 10 -20 0 -11 5 -20 10 -20 6 0
10 -6 10 -13 0 -7 9 -23 20 -35 11 -12 20 -28 20 -37 0 -8 5 -15 10 -15 6 0
10 -9 10 -20 0 -11 5 -20 10 -20 6 0 10 -9 10 -20 0 -11 5 -20 10 -20 6 0 10
-9 10 -20 0 -11 4 -20 9 -20 4 0 23 -30 42 -67 19 -38 37 -69 41 -71 5 -2 8
-12 8 -23 0 -10 5 -19 10 -19 6 0 10 -7 10 -15 0 -8 3 -15 8 -15 4 0 18 -25
32 -55 14 -30 28 -55 33 -55 4 0 7 -9 7 -20 0 -11 4 -20 9 -20 5 0 4 -11 -2
-25 -7 -14 -15 -25 -19 -25 -5 0 -8 -9 -8 -20 0 -11 -4 -20 -10 -20 -5 0 -10
-9 -10 -20 0 -11 -4 -20 -10 -20 -5 0 -10 -9 -10 -20 0 -11 -4 -20 -10 -20 -5
0 -10 -9 -10 -19 0 -11 -3 -21 -7 -23 -10 -4 -42 -57 -50 -80 -3 -10 -9 -18
-14 -18 -5 0 -9 -9 -9 -20 0 -11 -4 -20 -10 -20 -5 0 -10 -9 -10 -20 0 -11 -4
-20 -10 -20 -5 0 -10 -9 -10 -20 0 -11 -4 -20 -10 -20 -5 0 -10 -9 -10 -20 0
-11 -4 -20 -9 -20 -5 0 -11 -8 -14 -17 -8 -24 -40 -77 -49 -81 -5 -2 -8 -12
-8 -23 0 -10 -4 -19 -10 -19 -5 0 -10 -9 -10 -20 0 -11 -4 -20 -10 -20 -5 0
-10 -9 -10 -20 0 -11 -4 -20 -10 -20 -5 0 -10 -9 -10 -20 0 -11 -4 -20 -9 -20
-5 0 -11 -8 -14 -17 -8 -24 -40 -77 -49 -81 -5 -2 -8 -12 -8 -23 0 -10 -4 -19
-10 -19 -5 0 -10 -9 -10 -20 0 -11 -4 -20 -10 -20 -5 0 -10 -9 -10 -20 0 -11
-4 -20 -10 -20 -5 0 -10 -9 -10 -20 0 -11 -3 -20 -8 -20 -11 0 -43 -80 -37
-91 4 -5 73 -9 156 -9 142 0 149 1 149 20 0 11 5 20 10 20 6 0 10 9 10 20 0
11 5 20 10 20 6 0 10 9 10 20 0 11 5 20 10 20 6 0 10 9 10 20 0 11 5 20 10 20
6 0 10 9 10 20 0 11 5 20 10 20 6 0 10 9 10 20 0 11 5 20 10 20 6 0 10 9 10
20 0 11 5 20 10 20 6 0 10 9 10 20 0 11 4 20 8 20 5 0 14 16 22 35 8 19 17 35
22 35 4 0 8 9 8 19 0 11 3 21 8 23 4 2 27 44 52 93 25 50 48 91 52 93 5 2 8
12 8 23 0 10 5 19 10 19 6 0 10 9 10 20 0 11 5 20 10 20 6 0 10 9 10 20 0 11
5 20 10 20 6 0 10 9 10 20 0 11 5 20 10 20 6 0 10 9 10 20 0 11 3 20 6 20 11
0 34 -29 34 -44 0 -9 5 -16 10 -16 6 0 10 -9 10 -20 0 -11 5 -20 10 -20 6 0
10 -9 10 -20 0 -11 5 -20 10 -20 6 0 10 -9 10 -19 0 -11 3 -21 8 -23 4 -1 45
-79 92 -173 47 -93 88 -171 92 -173 5 -2 8 -12 8 -23 0 -10 5 -19 10 -19 6 0
10 -9 10 -20 0 -11 5 -20 10 -20 6 0 10 -9 10 -20 0 -11 3 -20 8 -20 4 0 18
-25 32 -55 14 -30 28 -55 33 -55 4 0 7 -7 7 -16 0 -38 23 -44 174 -44 146 0
146 0 146 23 0 13 -9 33 -20 45 -11 12 -20 28 -20 37 0 8 -4 15 -10 15 -5 0
-10 9 -10 20 0 11 -4 20 -10 20 -5 0 -10 9 -10 20 0 11 -4 20 -10 20 -5 0 -10
9 -10 20 0 11 -4 20 -10 20 -5 0 -10 9 -10 20 0 11 -4 20 -10 20 -5 0 -10 9
-10 20 0 11 -4 20 -10 20 -5 0 -10 6 -10 13 0 7 -9 23 -20 35 -11 12 -20 28
-20 37 0 8 -4 15 -10 15 -5 0 -10 9 -10 20 0 11 -4 20 -10 20 -5 0 -10 9 -10
20 0 11 -4 20 -10 20 -5 0 -10 9 -10 20 0 11 -4 20 -10 20 -5 0 -10 9 -10 20
0 11 -4 20 -10 20 -5 0 -10 9 -10 20 0 11 -4 20 -10 20 -5 0 -10 6 -10 13 0 7
-9 23 -20 35 -11 12 -20 28 -20 37 0 8 -4 15 -10 15 -5 0 -10 9 -10 20 0 11
-4 20 -10 20 -5 0 -10 9 -10 20 0 11 -4 20 -10 20 -5 0 -10 9 -10 20 0 11 -4
20 -10 20 -5 0 -10 9 -10 20 0 11 -4 20 -10 20 -5 0 -10 9 -10 20 0 11 -4 20
-10 20 -5 0 -10 6 -10 13 0 7 -9 23 -20 35 -11 12 -20 28 -20 37 0 8 -4 15
-10 15 -5 0 -10 9 -10 20 0 11 -4 20 -10 20 -5 0 -10 9 -10 20 0 11 5 20 10
20 6 0 10 9 10 20 0 11 5 20 10 20 6 0 10 7 10 15 0 8 5 15 10 15 6 0 10 9 10
19 0 11 3 21 8 23 4 2 22 33 41 71 19 37 38 67 42 67 5 0 9 9 9 20 0 11 5 20
10 20 6 0 10 9 10 20 0 11 5 20 10 20 6 0 10 9 10 20 0 11 5 20 10 20 6 0 10
9 10 20 0 11 4 20 9 20 5 0 14 14 21 30 7 17 16 30 21 30 5 0 9 9 9 20 0 11 5
20 10 20 6 0 10 9 10 20 0 11 5 20 10 20 6 0 10 9 10 20 0 11 5 20 10 20 6 0
10 7 10 15 0 9 9 25 20 37 11 12 20 28 20 35 0 7 5 13 10 13 6 0 10 9 10 20 0
11 5 20 10 20 6 0 10 9 10 20 0 11 5 20 10 20 6 0 10 7 10 15 0 9 9 25 20 37
11 12 20 28 20 35 0 7 5 13 10 13 6 0 10 9 10 20 0 11 5 20 10 20 6 0 10 9 10
20 0 11 5 20 10 20 6 0 10 16 10 35 l0 36 -142 -3 c-137 -3 -143 -4 -153 -25
-5 -13 -13 -23 -17 -23 -5 0 -8 -9 -8 -20 0 -11 -4 -20 -10 -20 -5 0 -10 -7
-10 -15 0 -8 -4 -15 -10 -15 -5 0 -10 -9 -10 -20 0 -11 -4 -20 -10 -20 -5 0
-10 -9 -10 -20 0 -11 -4 -20 -10 -20 -5 0 -10 -9 -10 -19 0 -11 -3 -21 -8 -23
-4 -1 -22 -33 -41 -70 -19 -38 -38 -68 -42 -68 -5 0 -9 -9 -9 -20 0 -11 -4
-20 -10 -20 -5 0 -10 -9 -10 -20 0 -11 -4 -20 -10 -20 -5 0 -10 -9 -10 -20 0
-11 -4 -20 -10 -20 -5 0 -10 -9 -10 -20 0 -11 -4 -20 -10 -20 -5 0 -10 -9 -10
-20 0 -11 -4 -20 -10 -20 -5 0 -10 -7 -10 -15 0 -9 -9 -25 -20 -37 -11 -12
-20 -28 -20 -35 0 -7 -4 -13 -10 -13 -5 0 -10 -9 -10 -20 0 -11 -4 -20 -10
-20 -5 0 -10 -7 -10 -16 0 -15 -23 -44 -34 -44 -3 0 -6 9 -6 20 0 11 -4 20
-10 20 -5 0 -10 9 -10 20 0 11 -4 20 -10 20 -5 0 -10 9 -10 20 0 11 -4 20 -10
20 -5 0 -10 9 -10 20 0 11 -4 20 -10 20 -5 0 -10 6 -10 13 0 7 -9 23 -20 35
-11 12 -20 28 -20 37 0 8 -4 15 -10 15 -5 0 -10 9 -10 20 0 11 -4 20 -10 20
-5 0 -10 9 -10 20 0 11 -4 20 -10 20 -5 0 -10 9 -10 20 0 11 -4 20 -10 20 -5
0 -10 9 -10 20 0 11 -4 20 -10 20 -5 0 -10 9 -10 20 0 11 -4 20 -9 20 -4 0
-28 39 -52 88 -24 48 -47 89 -51 90 -5 2 -8 12 -8 23 0 10 -4 19 -10 19 -5 0
-10 9 -10 20 0 11 -4 20 -10 20 -5 0 -10 7 -10 15 0 8 -4 15 -10 15 -5 0 -10
7 -10 15 0 13 -23 15 -144 15 -140 0 -145 -1 -152 -22z"/>
<path d="M10488 475 l-3 -75 -29 15 c-33 17 -186 21 -186 5 0 -5 -7 -10 -15
-10 -35 0 -76 -33 -104 -84 -17 -29 -21 -54 -21 -126 0 -53 4 -90 10 -90 6 0
10 -7 10 -15 0 -9 17 -32 37 -53 l37 -37 183 -2 183 -3 0 275 0 275 -50 0 -49
0 -3 -75z m-86 -157 c35 -20 68 -56 68 -73 0 -8 5 -15 10 -15 6 0 10 -9 10
-19 0 -11 -4 -23 -10 -26 -5 -3 -10 -15 -10 -26 0 -24 -22 -49 -44 -49 -9 0
-16 -4 -16 -10 0 -5 -22 -10 -50 -10 -27 0 -50 5 -50 10 0 6 -8 10 -17 10 -25
0 -43 45 -43 102 0 39 5 54 25 73 13 14 31 25 40 25 8 0 15 5 15 10 0 14 46
12 72 -2z"/>
<path d="M10710 490 l0 -60 50 0 50 0 0 60 0 60 -50 0 -50 0 0 -60z"/>
<path d="M11230 490 l0 -60 50 0 50 0 0 60 0 60 -50 0 -50 0 0 -60z"/>
<path d="M10950 460 c0 -49 -1 -50 -30 -50 -28 0 -30 -2 -30 -40 0 -38 2 -40
30 -40 l30 0 0 -150 c0 -93 4 -150 10 -150 6 0 10 -7 10 -15 0 -12 17 -15 90
-15 l90 0 0 45 c0 45 0 45 -36 45 -57 0 -64 14 -64 134 l0 106 50 0 50 0 0 40
0 40 -50 0 -50 0 0 50 0 50 -50 0 -50 0 0 -50z"/>
<path d="M5725 420 c-3 -5 -15 -10 -26 -10 -23 0 -89 -63 -89 -85 0 -8 -4 -15
-10 -15 -6 0 -10 -41 -10 -103 0 -86 3 -107 18 -123 10 -10 21 -27 25 -37 3
-9 11 -17 17 -17 6 0 18 -7 26 -15 12 -12 42 -15 131 -15 100 0 120 3 149 21
19 11 34 27 34 35 0 8 5 14 10 14 6 0 10 9 10 20 0 11 5 20 10 20 6 0 10 14
10 30 l0 30 -60 0 c-47 0 -60 -3 -60 -15 0 -9 -11 -27 -25 -40 -18 -19 -35
-25 -70 -25 -25 0 -45 5 -45 10 0 6 -7 10 -16 10 -22 0 -44 25 -44 49 0 11 -4
23 -10 26 -5 3 -10 15 -10 26 0 10 5 19 10 19 6 0 10 7 10 15 0 20 45 65 65
65 8 0 15 5 15 10 0 6 14 10 30 10 17 0 30 -4 30 -10 0 -5 7 -10 16 -10 20 0
44 -24 44 -44 0 -13 12 -16 60 -16 l60 0 0 30 c0 17 -4 30 -10 30 -5 0 -10 7
-10 15 0 20 -65 85 -85 85 -8 0 -15 5 -15 10 0 6 -36 10 -89 10 -50 0 -93 -4
-96 -10z"/>
<path d="M6230 420 c0 -5 -7 -10 -15 -10 -35 0 -76 -33 -104 -84 -17 -29 -21
-54 -21 -126 0 -53 4 -90 10 -90 6 0 10 -7 10 -15 0 -9 17 -32 37 -53 l37 -37
127 -3 c144 -4 188 8 211 59 7 16 16 29 20 29 5 0 8 15 8 34 0 19 5 38 10 41
6 3 10 21 10 40 0 19 -4 37 -10 40 -5 3 -10 21 -10 39 0 25 -10 44 -44 79 -24
26 -51 47 -59 47 -9 0 -19 5 -22 10 -3 6 -48 10 -101 10 -56 0 -94 -4 -94 -10z
m143 -106 c34 -18 46 -29 65 -62 14 -26 16 -82 2 -82 -5 0 -10 -7 -10 -16 0
-32 -51 -64 -103 -64 -42 0 -54 5 -83 34 -30 30 -34 40 -34 85 0 42 5 57 25
76 13 14 31 25 40 25 8 0 15 5 15 10 0 15 47 12 83 -6z"/>
<path d="M6810 420 c0 -5 -9 -10 -19 -10 -11 0 -22 -6 -25 -12 -5 -10 -7 -10
-12 0 -3 7 -25 12 -55 12 l-49 0 0 -205 0 -205 50 0 50 0 0 120 c0 66 3 120 8
120 4 0 13 13 20 30 7 16 22 32 33 35 10 4 19 11 19 16 0 20 71 9 95 -16 24
-23 25 -29 25 -165 l0 -140 50 0 50 0 0 104 c0 59 4 108 10 111 6 3 10 15 10
26 0 11 16 35 35 54 27 28 42 35 72 35 66 0 73 -17 73 -185 l0 -145 60 0 60 0
0 154 c0 93 -4 157 -10 161 -5 3 -10 15 -10 27 0 11 -15 35 -34 54 -33 33 -36
34 -120 34 -51 0 -86 -4 -86 -10 0 -5 -7 -10 -16 -10 -9 0 -25 -10 -35 -22
l-19 -21 -19 21 c-10 12 -26 22 -35 22 -9 0 -16 5 -16 10 0 6 -33 10 -80 10
-47 0 -80 -4 -80 -10z"/>
<path d="M7630 420 c0 -6 -33 -10 -80 -10 l-80 0 0 -205 0 -205 60 0 60 0 0
131 0 131 37 34 c29 26 46 34 76 34 64 0 67 -9 67 -179 l0 -151 60 0 60 0 0
120 c0 117 5 143 37 177 6 7 19 13 27 13 9 0 16 5 16 10 0 15 70 12 86 -4 8
-8 14 -22 14 -30 0 -9 5 -16 10 -16 6 0 10 -52 10 -135 l0 -135 50 0 50 0 0
175 c0 110 -4 175 -10 175 -5 0 -10 7 -10 16 0 20 -24 44 -44 44 -9 0 -16 5
-16 10 0 6 -34 10 -81 10 -62 0 -87 -4 -107 -18 -41 -28 -59 -32 -72 -16 -7 8
-19 14 -26 14 -8 0 -14 5 -14 10 0 6 -37 10 -90 10 -53 0 -90 -4 -90 -10z"/>
<path d="M8410 420 c0 -5 -7 -10 -15 -10 -26 0 -105 -86 -105 -115 0 -14 -4
-25 -10 -25 -6 0 -10 -26 -10 -59 0 -33 5 -63 10 -66 6 -3 10 -17 10 -31 0
-13 5 -24 10 -24 6 0 10 -7 10 -16 0 -24 49 -63 87 -70 18 -3 84 -5 146 -3
l113 4 37 37 c20 21 37 46 37 58 0 11 5 20 10 20 6 0 10 35 10 85 0 50 -4 85
-10 85 -5 0 -10 9 -10 20 0 11 -4 20 -10 20 -5 0 -10 7 -10 16 0 20 -24 44
-44 44 -9 0 -16 5 -16 10 0 6 -9 10 -20 10 -11 0 -20 5 -20 10 0 6 -40 10
-100 10 -60 0 -100 -4 -100 -10z m140 -100 c0 -5 7 -10 15 -10 9 0 27 -11 40
-25 20 -19 25 -34 25 -75 0 -44 -4 -55 -35 -85 -30 -31 -41 -35 -85 -35 -41 0
-56 5 -75 25 -14 13 -25 31 -25 40 0 8 -4 15 -10 15 -5 0 -10 18 -10 40 0 22
5 40 10 40 6 0 10 7 10 16 0 20 24 44 44 44 9 0 16 5 16 10 0 6 18 10 40 10
22 0 40 -4 40 -10z"/>
<path d="M8990 420 c0 -6 -33 -10 -80 -10 l-80 0 0 -205 0 -205 60 0 60 0 0
130 c0 124 1 132 23 154 33 33 61 46 97 46 56 0 60 -13 60 -179 l0 -151 60 0
60 0 0 160 c0 88 -4 168 -9 178 -5 9 -14 29 -22 45 -7 15 -20 27 -31 27 -10 0
-18 5 -18 10 0 6 -37 10 -90 10 -53 0 -90 -4 -90 -10z"/>
<path d="M9735 420 c-3 -5 -13 -10 -21 -10 -19 0 -84 -65 -84 -85 0 -8 -4 -15
-10 -15 -6 0 -10 -40 -10 -100 0 -91 2 -104 25 -139 43 -65 72 -74 216 -70
l125 4 36 36 c24 25 38 48 40 70 l3 34 -62 3 c-53 2 -63 0 -63 -13 0 -9 -9
-19 -20 -22 -11 -3 -20 -9 -20 -14 0 -14 -87 -11 -112 3 -34 20 -48 35 -48 52
0 14 22 16 170 16 l170 0 0 54 c0 30 -4 58 -10 61 -5 3 -10 15 -10 26 0 10 -4
19 -10 19 -5 0 -10 7 -10 16 0 24 -53 64 -85 64 -8 0 -15 5 -15 10 0 6 -38 10
-94 10 -53 0 -98 -4 -101 -10z m135 -100 c0 -5 7 -10 16 -10 15 0 44 -23 44
-34 0 -3 -43 -6 -96 -6 -101 0 -108 5 -50 41 33 20 86 26 86 9z"/>
<path d="M11555 420 c-3 -5 -13 -10 -21 -10 -16 0 -72 -53 -91 -88 -7 -12 -13
-33 -13 -46 0 -14 -4 -28 -10 -31 -5 -3 -10 -19 -10 -35 0 -16 5 -32 10 -35 6
-3 10 -24 10 -46 0 -21 3 -39 8 -39 4 0 13 -13 20 -29 22 -50 72 -64 214 -60
l124 4 37 37 c20 21 37 44 37 53 0 8 5 15 10 15 6 0 10 38 10 94 0 53 -4 98
-10 101 -5 3 -10 13 -10 21 0 26 -72 84 -105 84 -8 0 -15 5 -15 10 0 6 -38 10
-94 10 -53 0 -98 -4 -101 -10z m135 -100 c0 -5 7 -10 15 -10 9 0 27 -11 40
-25 21 -20 25 -34 25 -80 0 -30 -4 -55 -9 -55 -5 0 -11 -9 -14 -20 -3 -11 -12
-20 -21 -20 -9 0 -16 -4 -16 -10 0 -14 -86 -12 -112 3 -34 19 -48 34 -48 51 0
9 -4 16 -10 16 -5 0 -10 16 -10 35 0 19 3 35 8 35 4 0 12 10 17 22 6 12 25 33
44 45 34 23 91 31 91 13z"/>
<path d="M12133 419 c-7 -7 -42 -11 -87 -10 l-76 2 0 -206 0 -205 60 0 60 0 0
130 c0 80 4 130 10 130 6 0 10 5 10 11 0 6 6 16 13 22 59 55 147 47 147 -12 0
-12 5 -21 10 -21 6 0 10 -50 10 -130 l0 -130 50 0 50 0 0 175 c0 110 -4 175
-10 175 -5 0 -10 7 -10 16 0 20 -24 44 -44 44 -9 0 -16 5 -16 10 0 14 -163 13
-177 -1z"/>
<path d="M10710 205 l0 -205 50 0 50 0 0 205 0 205 -50 0 -50 0 0 -205z"/>
<path d="M11230 205 l0 -205 50 0 50 0 0 205 0 205 -50 0 -50 0 0 -205z"/>
</g>
</svg>
