<svg xmlns="http://www.w3.org/2000/svg" width="200.66mm" height="64.11mm" viewBox="0 0 568.81 181.73"><title>astra_se</title><path d="M79,79.14h9.67l18.43,65.71h-8L93.88,126H73.16l-4.84,18.88h-8Zm4.75,5.3h-.18l-8.67,35H92.25Z" transform="translate(-6.13 -5.13)" style="fill:#231f20"/><path d="M120.07,124c0,9.67,2.74,15.79,12.41,15.79,7.39,0,12.51-3.19,12.51-10.95,0-8.48-4-10.59-10.68-13.14l-9.68-3.65c-6-2.28-10.59-6.84-10.59-17.25s7.21-17,17.89-17c11.4,0,18.16,6.48,18.71,18.53h-7.31c0-7.21-3.55-12-10.86-12-8.12,0-10.86,4.92-10.86,10.4,0,6,1.55,8.67,5.75,10.22l10.5,3.92c10.41,3.93,14.69,10.13,14.69,18.8,0,12.41-7.67,18.62-20.26,18.62s-19.53-8.21-19.53-22.35h7.29v0h0Z" transform="translate(-6.13 -5.13)" style="fill:#231f20"/><path d="M180.85,144.85h-7.3V85.71H156.49V79.14h41.34v6.57h-17v59.14Z" transform="translate(-6.13 -5.13)" style="fill:#231f20"/><path d="M213.25,144.85H206V79.14h20c11.5,0,19.08,5.57,19.08,17.9,0,7.49-4.29,14.06-11.87,15.15v.18c6.94.82,11.23,6.76,11.23,14.88,0,13.69,1.19,14.15,2.19,16.15v1.46h-7.39c-1.46-4.28-2.1-8.12-2.1-15.24,0-8.67-3.83-13.68-12-13.68H213.25v28.92Zm0-35.5h12.68c5.11,0,11.5-2.37,11.5-12,0-9.48-5.39-11.59-11.77-11.59H213.25v23.63Z" transform="translate(-6.13 -5.13)" style="fill:#231f20"/><path d="M272.92,79.14h9.67L301,144.84h-8L287.79,126H267.07l-4.84,18.88h-8Zm4.74,5.3h-.18l-8.67,35h17.34Z" transform="translate(-6.13 -5.13)" style="fill:#231f20"/><path d="M317.16,138.28H344v6.57H309.86V79.14h7.3Z" transform="translate(-6.13 -5.13)" style="fill:#231f20"/><path d="M360.15,144.85h-7.3V79.14h7.3Z" transform="translate(-6.13 -5.13)" style="fill:#231f20"/><path d="M385.36,79.14,404,132.89c.82,2.28,1.46,4.2,2.28,7.23h.27c-.09-2.38-.27-4.94-.27-7.31V79.14h7.3v65.71h-12L383.25,92.28a51.62,51.62,0,0,1-2.46-9.85h-.18c.09,3.28.18,6.66.18,10v52.38h-7.3V79.14Z" transform="translate(-6.13 -5.13)" style="fill:#231f20"/><path d="M434.27,79.14v47.28c0,5.11.73,13.42,12.42,13.42s12.4-8.31,12.4-13.42V79.14h7.3v49.92c0,11.68-7.76,17.34-19.7,17.34S427,140.75,427,129.06V79.14Z" transform="translate(-6.13 -5.13)" style="fill:#231f20"/><path d="M484.24,79.14,498,104.78l13.78-25.64h8.12l-17.61,31.95,18,33.76H512l-14-27.47-14.24,27.47h-8.12l18.16-33.76-17.7-31.95Z" transform="translate(-6.13 -5.13)" style="fill:#231f20"/><path d="M190.19,174.57H38.55A25.1,25.1,0,0,1,13.48,149.5V72.06A25.1,25.1,0,0,1,38.55,47H264.7V39.64H38.55A32.46,32.46,0,0,0,6.13,72.06V149.5a32.46,32.46,0,0,0,32.42,32.43H190.19v-7.35Z" transform="translate(-6.13 -5.13)" style="fill:#231f20"/><path d="M542.51,39.64h-226V47h226a25.1,25.1,0,0,1,25.07,25.07V149.5a25.11,25.11,0,0,1-25.07,25.08H390.46v7.34H542.51a32.45,32.45,0,0,0,32.42-32.43V72.07A32.46,32.46,0,0,0,542.51,39.64Z" transform="translate(-6.13 -5.13)" style="fill:#231f20"/><circle cx="184.06" cy="173.12" r="3.68" style="fill:#231f20"/><circle cx="384.35" cy="173.12" r="3.68" style="fill:#231f20"/><circle cx="310.34" cy="38.19" r="3.68" style="fill:#231f20"/><circle cx="258.58" cy="38.19" r="3.68" style="fill:#231f20"/><path d="M319,27.79l-19.3-3.32L292.38,9l-1.84-3.89-9.16,19.33-19.31,3.32,13.79,14.95-3.09,21.2,17.76-9.75,17.76,9.75-3.11-21.2,11.25-12.19Zm-16.26,14,2.62,17.7-14.81-8.13-14.82,8.13,2.63-17.71L266.8,29.28l16.13-2.79,7.59-16,7.58,16,16.14,2.79Z" transform="translate(-6.13 -5.13)" style="fill:#0b79bf"/><polygon points="273.53 39.91 278.89 47.19 281.19 45.93 272.3 27.51 284 44.38 284.4 44.16 288.49 46.41 279.49 26.58 294.82 49.88 296.9 51.02 296.57 48.77 286.68 25.65 295.18 39.22 294.71 36.06 297.31 33.25 293.88 24.73 298.32 32.16 304.62 25.34 290.78 22.96 284.4 9.48 278.02 22.96 264.19 25.34 274.1 36.06 273.53 39.91" style="fill:#0b79bf"/><polygon points="272.97 43.76 271.91 51.02 275.65 48.97 272.97 43.76" style="fill:#0b79bf"/><path d="M541.54,87.47A8.59,8.59,0,1,1,533,78.91,8.57,8.57,0,0,1,541.54,87.47Zm-15.89,0a7.29,7.29,0,1,0,7.3-7.28A7.29,7.29,0,0,0,525.65,87.47Zm4.09-4.82H534c1.64,0,3.43.53,3.43,2.58s-1.46,2.63-3,2.63l2.87,4.43h-1.41l-2.72-4.43H531v4.43h-1.23Zm1.23,4.3h2.83c.89,0,2.35-.16,2.35-1.76,0-1.44-1.31-1.62-2.47-1.62H531v3.38Z" transform="translate(-6.13 -5.13)" style="fill:#231f20"/><path d="M208.6,174.05c-.16-1.51-1.33-2.19-3.52-2.19s-3.16.59-3.16,1.63.9,1.4,2.76,1.71l2.62.43c2.71.46,3.81,1.26,3.81,3.45,0,2.46-2,3.8-6,3.8-3.77,0-5.69-1.31-6-4.29h2.39c.2,1.56,1.47,2.44,3.57,2.44,2.48,0,3.79-.72,3.79-1.83,0-1-.68-1.26-2.21-1.51l-2.71-.47c-2.84-.48-4.26-1.11-4.26-3.35,0-2.5,1.85-3.86,5.46-3.86s5.53,1.42,5.53,4H208.6Z" transform="translate(-6.13 -5.13)" style="fill:#231f20"/><path d="M216.79,172.23a5.69,5.69,0,0,1,4.7-2.21,6.44,6.44,0,1,1,0,12.87,5.84,5.84,0,0,1-4.67-2.13v6.1H214.6V170.4h2.19v1.83Zm0,4.27a4.44,4.44,0,1,0,4.45-4.45A4.14,4.14,0,0,0,216.79,176.5Z" transform="translate(-6.13 -5.13)" style="fill:#231f20"/><path d="M233.05,176.92c0,2.37,1.74,3.93,4.34,3.93,1.92,0,3.37-.74,3.86-2.08h2.55c-.86,2.62-3.18,4.11-6.42,4.11-4.09,0-6.66-2.48-6.66-6.39s2.6-6.48,6.66-6.48,6.62,2.44,6.62,6.48v.43Zm8.6-1.56a4.42,4.42,0,0,0-8.56,0Z" transform="translate(-6.13 -5.13)" style="fill:#231f20"/><path d="M257.08,174.44a3.43,3.43,0,0,0-3.54-2.39,4.14,4.14,0,0,0-4.47,4.47,4,4,0,0,0,4.31,4.34,3.48,3.48,0,0,0,3.77-2.84h2.3c-.52,3.07-2.85,4.87-6.16,4.87-3.86,0-6.55-2.53-6.55-6.39a6.21,6.21,0,0,1,6.59-6.48c3.21,0,5.51,1.71,6,4.42Z" transform="translate(-6.13 -5.13)" style="fill:#231f20"/><path d="M263,168.81v-2.66h2.19v2.66Zm2.19,13.73H263V170.4h2.19Z" transform="translate(-6.13 -5.13)" style="fill:#231f20"/><path d="M273.54,182.88c-3,0-4.65-1.4-4.65-3.65,0-2.83,2.15-3.41,5.6-3.8,2.68-.29,4.09-.23,4.09-1.69,0-1.31-1-1.88-3.21-1.88-2.46,0-3.61.7-3.72,2.44h-2.28c.15-2.87,2.12-4.29,5.85-4.29,4,0,5.56,1.06,5.56,4V179c0,1.26.23,1.88,1.08,1.88a4.22,4.22,0,0,0,.66-.07v1.76a11.66,11.66,0,0,1-1.74.16c-1.26,0-1.9-.7-2.12-2A6.28,6.28,0,0,1,273.54,182.88Zm1.35-5.74c-2.37.27-3.68.48-3.68,2,0,1.15,1,1.92,2.69,1.92,2.8,0,4.68-1.38,4.68-2.91v-1.81A10.28,10.28,0,0,1,274.89,177.15Z" transform="translate(-6.13 -5.13)" style="fill:#231f20"/><rect x="279.44" y="161.02" width="2.19" height="16.39" style="fill:#231f20"/><path d="M299.36,176.92c0,2.37,1.74,3.93,4.34,3.93,1.92,0,3.37-.74,3.86-2.08h2.55c-.86,2.62-3.19,4.11-6.42,4.11-4.09,0-6.66-2.48-6.66-6.39s2.6-6.48,6.66-6.48,6.62,2.44,6.62,6.48v.43Zm8.6-1.56c-.34-2.05-1.92-3.32-4.27-3.32a4,4,0,0,0-4.29,3.32Z" transform="translate(-6.13 -5.13)" style="fill:#231f20"/><path d="M326.42,182.54h-2.19v-1.78a5.73,5.73,0,0,1-4.7,2.13,6.11,6.11,0,0,1-6.48-6.37,6.23,6.23,0,0,1,6.5-6.5,5.59,5.59,0,0,1,4.68,2.23v-6.09h2.19Zm-11-6c0,2.73,1.65,4.34,4.4,4.34s4.45-1.62,4.45-4.34a4.17,4.17,0,0,0-4.45-4.47A4.12,4.12,0,0,0,315.38,176.52Z" transform="translate(-6.13 -5.13)" style="fill:#231f20"/><path d="M330.69,168.81v-2.66h2.19v2.66Zm2.19,13.73h-2.19V170.4h2.19Z" transform="translate(-6.13 -5.13)" style="fill:#231f20"/><path d="M340.24,167.3v3.09h3v1.85h-3v7.21c0,1,.41,1.4,1.49,1.4a7,7,0,0,0,1.49-.18v2a14.06,14.06,0,0,1-2,.2c-2.14,0-3.14-.9-3.14-2.8v-7.84h-2.12V170.4h2.12V167.3Z" transform="translate(-6.13 -5.13)" style="fill:#231f20"/><path d="M346.31,168.81v-2.66h2.19v2.66Zm2.19,13.73h-2.19V170.4h2.19Z" transform="translate(-6.13 -5.13)" style="fill:#231f20"/><path d="M365.62,176.5c0,3.9-2.6,6.39-6.78,6.39s-6.8-2.48-6.8-6.39,2.62-6.48,6.8-6.48S365.62,172.59,365.62,176.5Zm-11.25,0a4.46,4.46,0,1,0,4.47-4.4A4.09,4.09,0,0,0,354.37,176.45Z" transform="translate(-6.13 -5.13)" style="fill:#231f20"/><path d="M371.27,172.49a6.1,6.1,0,0,1,5-2.48c3.68,0,4.61,2.12,4.61,5.3v7.23h-2.19v-7c0-2.45-.72-3.64-2.91-3.64a4.33,4.33,0,0,0-4.49,4.52v6.16h-2.19V170.4h2.19Z" transform="translate(-6.13 -5.13)" style="fill:#231f20"/></svg>