<?xml version="1.0" standalone="no"?>
<!DOCTYPE svg PUBLIC "-//W3C//DTD SVG 20010904//EN"
 "http://www.w3.org/TR/2001/REC-SVG-20010904/DTD/svg10.dtd">
<svg version="1.0" xmlns="http://www.w3.org/2000/svg"
 width="1138.000000pt" height="1024.000000pt" viewBox="0 0 1138.000000 1024.000000"
 preserveAspectRatio="xMidYMid meet">

<g transform="translate(0.000000,1024.000000) scale(0.100000,-0.100000)"
fill="#000000" stroke="none">
<path d="M5860 8145 l0 -55 880 0 880 0 0 55 0 55 -880 0 -880 0 0 -55z"/>
<path d="M3602 6588 c-18 -18 -15 -75 4 -82 24 -9 44 -7 44 4 0 6 -9 10 -20
10 -28 0 -28 50 0 57 11 3 17 9 14 14 -7 13 -28 11 -42 -3z"/>
<path d="M3670 6551 c0 -56 10 -64 30 -26 17 32 28 32 33 -2 2 -16 5 -3 5 27
l1 55 -24 -30 c-23 -28 -25 -28 -25 -8 0 12 -4 25 -10 28 -6 4 -10 -13 -10
-44z"/>
<path d="M3778 6589 c-21 -12 -24 -59 -6 -77 15 -15 48 -16 48 -2 0 6 -9 10
-20 10 -28 0 -28 50 0 57 11 3 17 9 14 14 -7 11 -15 11 -36 -2z"/>
<path d="M3830 6590 c0 -5 7 -10 15 -10 11 0 15 -11 15 -40 0 -22 5 -40 10
-40 6 0 10 18 10 40 0 22 5 40 10 40 6 0 10 5 10 10 0 6 -16 10 -35 10 -19 0
-35 -4 -35 -10z"/>
<path d="M3910 6550 l0 -50 35 0 c19 0 35 5 35 10 0 6 -11 10 -25 10 -14 0
-25 5 -25 10 0 6 9 10 20 10 11 0 20 5 20 10 0 6 -9 10 -20 10 -11 0 -20 5
-20 10 0 6 12 10 26 10 14 0 23 4 19 10 -3 6 -19 10 -36 10 -28 0 -29 -1 -29
-50z"/>
<path d="M3990 6550 c0 -27 5 -50 10 -50 6 0 10 10 10 22 0 21 1 21 14 3 13
-18 13 -18 24 1 11 18 11 18 12 -3 0 -13 5 -23 10 -23 6 0 10 23 10 51 0 54
-13 58 -32 11 l-10 -27 -16 33 c-22 45 -32 40 -32 -18z"/>
<path d="M4126 6591 c-4 -5 -13 -28 -21 -50 -14 -41 -9 -51 13 -29 10 10 17
10 32 0 30 -18 31 -15 13 31 -19 50 -29 62 -37 48z m11 -43 c-3 -8 -6 -5 -6 6
-1 11 2 17 5 13 3 -3 4 -12 1 -19z"/>
<path d="M4230 6590 c-12 -8 -11 -10 8 -10 24 0 30 -15 10 -24 -10 -5 -10 -7
0 -12 19 -9 14 -24 -8 -24 -11 0 -20 -5 -20 -11 0 -6 12 -9 28 -7 24 3 27 8
30 42 4 48 -16 67 -48 46z"/>
<path d="M4325 6591 c-3 -6 -12 -28 -20 -50 -14 -41 -9 -51 13 -29 10 10 17
10 34 -1 19 -12 20 -11 14 13 -9 36 -25 76 -30 76 -3 0 -7 -4 -11 -9z m15 -36
c0 -8 -4 -15 -10 -15 -5 0 -7 7 -4 15 4 8 8 15 10 15 2 0 4 -7 4 -15z"/>
<path d="M4392 6553 l-2 -53 49 0 c30 0 51 -5 54 -12 3 -7 6 13 6 44 1 31 -3
60 -9 63 -6 4 -10 -10 -10 -34 0 -30 -4 -41 -15 -41 -11 0 -15 11 -15 41 0 24
-4 38 -10 34 -5 -3 -10 -22 -10 -41 0 -52 -28 -45 -33 9 -3 40 -4 40 -5 -10z"/>
<path d="M4522 6550 l-1 -55 24 30 25 30 0 -27 c0 -16 5 -28 10 -28 6 0 10 24
10 53 l-1 52 -29 -34 -29 -34 -4 34 c-2 23 -4 16 -5 -21z"/>
<path d="M4605 6590 c-3 -5 1 -10 9 -10 12 0 16 -10 16 -40 0 -22 5 -40 10
-40 6 0 10 18 10 40 0 22 5 40 10 40 6 0 10 5 10 10 0 6 -13 10 -29 10 -17 0
-33 -4 -36 -10z"/>
<path d="M4680 6549 l0 -50 33 3 c27 2 32 7 32 28 0 18 -6 26 -22 28 -15 2
-23 10 -23 23 0 10 -4 19 -10 19 -5 0 -10 -23 -10 -51z m50 -19 c0 -5 -7 -10
-15 -10 -8 0 -15 5 -15 10 0 6 7 10 15 10 8 0 15 -4 15 -10z"/>
<path d="M4760 6550 c0 -27 5 -50 10 -50 6 0 10 23 10 50 0 28 -4 50 -10 50
-5 0 -10 -22 -10 -50z"/>
<path d="M4838 6594 c-11 -11 -10 -94 1 -94 5 0 18 15 30 33 l21 32 0 -32 c0
-18 5 -33 10 -33 13 0 13 87 1 95 -5 3 -18 -9 -28 -26 l-18 -31 -5 32 c-3 18
-8 28 -12 24z"/>
<path d="M4928 6594 c-12 -11 -10 -82 2 -89 6 -3 10 3 10 14 0 14 6 21 20 21
13 0 20 -7 20 -20 0 -11 5 -20 10 -20 6 0 10 20 10 44 0 25 -4 48 -10 51 -5 3
-10 -3 -10 -14 0 -29 -37 -28 -42 0 -2 11 -6 17 -10 13z"/>
<path d="M5030 6582 c-45 -36 7 -99 56 -67 30 19 31 49 2 69 -28 20 -31 20
-58 -2z m20 -33 c0 -11 -4 -17 -10 -14 -5 3 -10 13 -10 21 0 8 5 14 10 14 6 0
10 -9 10 -21z m40 1 c0 -11 -4 -20 -10 -20 -5 0 -10 9 -10 20 0 11 5 20 10 20
6 0 10 -9 10 -20z"/>
<path d="M5138 6589 c-21 -12 -24 -59 -6 -77 18 -18 46 -14 58 7 14 27 13 47
-6 65 -18 19 -23 19 -46 5z m37 -40 c0 -15 -7 -25 -17 -27 -13 -3 -18 3 -18
21 0 13 3 27 7 31 13 12 28 -1 28 -25z"/>
<path d="M5217 6593 c-11 -10 -8 -93 3 -93 6 0 10 9 10 19 0 13 8 21 22 23 26
3 37 36 16 49 -16 10 -42 12 -51 2z m43 -28 c0 -8 -7 -15 -15 -15 -8 0 -15 7
-15 15 0 8 7 15 15 15 8 0 15 -7 15 -15z"/>
<path d="M5290 6550 c0 -27 5 -50 10 -50 6 0 10 10 10 23 1 20 2 20 11 4 8
-14 14 -16 25 -6 11 9 14 8 14 -5 0 -9 5 -16 10 -16 6 0 10 23 10 50 0 28 -2
50 -5 50 -2 0 -12 -15 -21 -32 l-17 -33 -15 33 c-22 45 -32 40 -32 -18z"/>
<path d="M5425 6591 c-3 -6 -12 -28 -20 -50 -14 -41 -9 -51 13 -29 10 10 17
10 32 0 29 -18 30 -16 13 33 -16 47 -28 62 -38 46z m12 -43 c-3 -8 -6 -5 -6 6
-1 11 2 17 5 13 3 -3 4 -12 1 -19z"/>
<path d="M5490 6551 c0 -50 1 -51 29 -51 16 0 31 -6 34 -12 10 -29 16 1 10 55
-7 65 -23 77 -23 17 0 -29 -4 -40 -15 -40 -10 0 -15 10 -15 34 0 19 -4 38 -10
41 -6 4 -10 -13 -10 -44z"/>
<path d="M5580 6551 c0 -28 4 -51 9 -51 5 0 18 15 30 33 l21 32 0 -32 c0 -18
5 -33 10 -33 12 0 13 87 1 94 -5 3 -18 -9 -30 -27 l-21 -32 0 27 c0 15 -4 30
-10 33 -6 4 -10 -13 -10 -44z"/>
<path d="M5678 6594 c-12 -11 -9 -94 2 -94 6 0 19 15 30 33 l20 32 0 -32 c0
-18 5 -33 10 -33 6 0 10 23 10 50 0 28 -4 50 -8 50 -4 0 -16 -15 -27 -32 l-20
-33 -5 33 c-3 19 -8 30 -12 26z"/>
<path d="M3594 6436 c-3 -8 -4 -25 -2 -38 2 -17 9 -23 28 -23 22 0 25 5 28 38
3 34 1 37 -23 37 -14 0 -28 -6 -31 -14z m46 -26 c0 -20 -5 -30 -15 -30 -18 0
-30 24 -21 45 10 28 36 17 36 -15z"/>
<path d="M3673 6443 c12 -3 17 -16 19 -41 l1 -37 4 35 c3 19 10 38 16 42 7 4
-4 7 -23 7 -19 -1 -27 -3 -17 -6z"/>
<path d="M3763 6410 c0 -25 2 -35 4 -22 3 13 12 22 23 22 11 0 20 -9 23 -22 2
-13 4 -3 4 22 1 25 -1 37 -4 28 -2 -10 -13 -18 -23 -18 -10 0 -21 8 -23 18 -3
9 -5 -3 -4 -28z"/>
<path d="M3840 6410 c0 -37 2 -40 28 -39 23 2 24 2 5 6 -27 5 -31 30 -5 36 16
4 16 5 0 6 -26 2 -22 19 5 24 19 4 18 4 -5 6 -26 1 -28 -2 -28 -39z"/>
<path d="M3905 6430 c-11 -35 3 -60 33 -59 24 2 24 2 5 6 -18 3 -23 11 -23 33
0 22 5 30 23 33 19 4 19 4 -5 6 -19 1 -29 -5 -33 -19z"/>
<path d="M3980 6414 c-7 -19 -9 -38 -6 -41 3 -4 6 -1 6 5 0 7 9 12 20 12 11 0
20 -5 20 -12 0 -6 2 -9 5 -7 6 7 -17 79 -26 79 -4 0 -13 -16 -19 -36z m30 -5
c0 -5 -4 -9 -10 -9 -5 0 -10 7 -10 16 0 8 5 12 10 9 6 -3 10 -10 10 -16z"/>
<path d="M4042 6410 c-1 -36 1 -41 8 -22 5 12 16 22 24 22 8 0 17 -10 19 -22
2 -13 4 -3 4 22 1 25 -1 37 -4 28 -2 -10 -13 -18 -23 -18 -10 0 -21 8 -23 18
-3 9 -5 -3 -5 -28z"/>
<path d="M4123 6410 c0 -25 2 -35 4 -22 5 27 23 29 30 2 3 -11 10 -20 15 -20
5 0 6 5 2 11 -4 7 -7 26 -7 43 0 17 -2 23 -4 14 -3 -10 -11 -18 -18 -18 -7 0
-16 8 -18 18 -3 9 -5 -3 -4 -28z"/>
<path d="M4192 6413 c-2 -39 0 -43 21 -43 13 0 28 -5 35 -12 10 -10 11 -1 6
37 -8 62 -14 70 -14 22 0 -30 -4 -37 -19 -37 -15 0 -21 8 -24 38 l-4 37 -1
-42z"/>
<path d="M4271 6411 c-1 -28 3 -41 8 -35 6 5 6 24 1 44 l-8 35 -1 -44z"/>
<path d="M4317 6413 c8 -52 13 -54 13 -5 0 23 -4 42 -9 42 -6 0 -7 -17 -4 -37z"/>
<path d="M4345 6430 c-10 -32 4 -60 30 -60 26 0 40 28 30 60 -4 13 -15 20 -30
20 -15 0 -26 -7 -30 -20z m50 0 c10 -16 -5 -50 -21 -50 -9 0 -14 11 -14 30 0
30 21 42 35 20z"/>
<path d="M4423 6410 c0 -25 2 -35 4 -22 3 13 12 22 23 22 11 0 20 -9 23 -22 2
-13 4 -3 4 22 1 25 -1 37 -4 28 -2 -10 -13 -18 -23 -18 -10 0 -21 8 -23 18 -3
9 -5 -3 -4 -28z"/>
<path d="M4501 6411 c-1 -28 3 -41 8 -35 6 5 6 24 1 44 l-8 35 -1 -44z"/>
<path d="M4547 6413 c8 -52 13 -54 13 -5 0 23 -4 42 -9 42 -6 0 -7 -17 -4 -37z"/>
<path d="M4570 6410 c0 -22 5 -40 10 -40 6 0 10 6 10 14 0 7 9 16 20 19 12 3
20 14 20 26 0 17 -6 21 -30 21 -28 0 -30 -2 -30 -40z m48 18 c-6 -18 -28 -21
-28 -4 0 9 7 16 16 16 9 0 14 -5 12 -12z"/>
<path d="M4644 6436 c-3 -8 -4 -25 -2 -38 2 -17 9 -23 28 -23 22 0 25 5 28 38
3 34 1 37 -23 37 -14 0 -28 -6 -31 -14z m46 -26 c0 -32 -26 -43 -36 -15 -9 21
3 45 21 45 10 0 15 -10 15 -30z"/>
<path d="M4720 6410 c0 -39 1 -41 28 -38 24 3 27 7 27 38 0 31 -3 35 -27 38
-27 3 -28 1 -28 -38z m40 20 c0 -5 -7 -10 -15 -10 -8 0 -15 5 -15 10 0 6 7 10
15 10 8 0 15 -4 15 -10z m3 -35 c1 -5 -6 -11 -15 -13 -11 -2 -18 3 -18 13 0
17 30 18 33 0z"/>
<path d="M4800 6414 c-7 -19 -9 -38 -6 -41 3 -4 6 -1 6 5 0 7 9 12 20 12 11 0
20 -5 20 -12 0 -6 3 -9 6 -5 8 8 -15 77 -26 77 -5 0 -14 -16 -20 -36z m30 -4
c0 -5 -4 -10 -10 -10 -5 0 -10 5 -10 10 0 6 5 10 10 10 6 0 10 -4 10 -10z"/>
<path d="M4862 6410 c-1 -36 1 -41 8 -22 12 27 40 29 40 2 0 -11 5 -20 10 -20
6 0 10 18 10 40 0 22 -4 40 -10 40 -5 0 -10 -7 -10 -15 0 -21 -38 -19 -43 3
-3 9 -5 -3 -5 -28z"/>
<path d="M4943 6410 c0 -25 2 -35 4 -22 3 13 12 22 23 22 11 0 20 -9 23 -22 2
-13 4 -3 4 22 1 25 -1 37 -4 28 -2 -10 -13 -18 -23 -18 -10 0 -21 8 -23 18 -3
9 -5 -3 -4 -28z"/>
<path d="M5015 6430 c-10 -32 4 -60 30 -60 26 0 40 28 30 60 -4 13 -15 20 -30
20 -15 0 -26 -7 -30 -20z m45 -20 c0 -20 -5 -30 -15 -30 -10 0 -15 10 -15 30
0 20 5 30 15 30 10 0 15 -10 15 -30z"/>
<path d="M5092 6408 l1 -43 4 37 c3 28 9 38 26 41 18 4 17 5 -5 6 -27 1 -28
-1 -26 -41z"/>
<path d="M5154 6436 c-3 -8 -4 -25 -2 -38 2 -17 9 -23 28 -23 22 0 25 5 28 38
3 34 1 37 -23 37 -14 0 -28 -6 -31 -14z m46 -26 c0 -20 -5 -30 -15 -30 -18 0
-30 24 -21 45 10 28 36 17 36 -15z"/>
<path d="M5270 6421 c0 -17 -4 -33 -10 -36 -5 -3 -10 -14 -9 -23 0 -11 3 -12
6 -4 2 6 17 12 33 12 16 0 31 -6 34 -12 4 -7 4 -2 1 12 -2 14 -5 37 -5 53 0
22 -4 27 -25 27 -21 0 -25 -5 -25 -29z m40 -11 c0 -22 -5 -30 -18 -30 -15 0
-18 6 -14 30 2 17 10 30 18 30 9 0 14 -11 14 -30z"/>
<path d="M5344 6436 c-3 -8 -4 -25 -2 -38 2 -17 9 -23 28 -23 22 0 25 5 28 38
3 34 1 37 -23 37 -14 0 -28 -6 -31 -14z m46 -26 c0 -20 -5 -30 -15 -30 -18 0
-30 24 -21 45 10 28 36 17 36 -15z"/>
<path d="M5422 6413 c2 -31 7 -38 26 -39 18 -1 19 -1 2 3 -30 7 -28 60 3 66
18 4 17 4 -6 6 -27 1 -28 -1 -25 -36z"/>
<path d="M5487 6442 c6 -4 13 -23 16 -42 l4 -35 1 37 c1 20 8 39 15 41 6 3 -1
6 -18 6 -17 0 -25 -3 -18 -7z"/>
<path d="M5550 6426 c6 -16 8 -36 5 -44 -3 -8 0 -12 7 -10 6 2 17 21 24 41 7
21 9 35 4 32 -6 -4 -10 -14 -10 -23 0 -13 -5 -12 -20 8 l-20 25 10 -29z"/>
<path d="M5612 6408 l1 -43 4 38 c3 28 9 37 23 37 14 0 20 -9 23 -37 l4 -38 1
43 c2 40 1 42 -28 42 -29 0 -30 -2 -28 -42z"/>
<path d="M5696 6415 c-20 -47 -20 -48 3 -33 15 9 23 9 35 -1 14 -12 15 -10 5
20 -18 52 -26 55 -43 14z m28 0 c3 -9 0 -15 -9 -15 -9 0 -12 6 -9 15 4 8 7 15
9 15 2 0 5 -7 9 -15z"/>
<path d="M4297 6423 c-4 -3 -7 -11 -7 -17 0 -6 5 -5 12 2 6 6 9 14 7 17 -3 3
-9 2 -12 -2z"/>
<path d="M4527 6423 c-4 -3 -7 -11 -7 -17 0 -6 5 -5 12 2 6 6 9 14 7 17 -3 3
-9 2 -12 -2z"/>
<path d="M2835 6370 c-42 -11 -1 -11 50 -1 34 7 35 9 10 9 -16 0 -43 -4 -60
-8z"/>
<path d="M2975 6369 c51 -10 92 -10 50 1 -16 4 -43 8 -60 8 -25 0 -24 -2 10
-9z"/>
<path d="M2625 6332 l-130 -27 0 -193 -1 -192 3 189 3 189 153 30 c83 16 141
30 127 30 -14 0 -83 -12 -155 -26z"/>
<path d="M3068 6353 c6 -2 18 -2 25 0 6 3 1 5 -13 5 -14 0 -19 -2 -12 -5z"/>
<path d="M3123 6343 c9 -2 23 -2 30 0 6 3 -1 5 -18 5 -16 0 -22 -2 -12 -5z"/>
<path d="M3178 6333 c6 -2 18 -2 25 0 6 3 1 5 -13 5 -14 0 -19 -2 -12 -5z"/>
<path d="M3228 6323 c6 -2 18 -2 25 0 6 3 1 5 -13 5 -14 0 -19 -2 -12 -5z"/>
<path d="M3288 6313 c6 -2 18 -2 25 0 6 3 1 5 -13 5 -14 0 -19 -2 -12 -5z"/>
<path d="M3343 6304 c14 -4 17 -17 17 -62 0 -136 -46 -193 -106 -131 -29 31
-58 41 -32 12 28 -32 56 -98 68 -161 32 -159 -60 -327 -218 -400 -47 -22 -71
-26 -142 -26 -74 0 -93 4 -150 30 -78 37 -148 104 -184 176 l-27 53 6 -45 c4
-25 8 -50 10 -56 2 -7 -6 -22 -17 -34 -20 -21 -21 -22 -39 -3 -12 11 -23 43
-28 78 l-9 60 -1 -80 c-1 -66 4 -90 24 -133 44 -96 186 -221 367 -326 46 -27
47 -27 80 -10 149 77 340 240 383 328 l25 52 -2 339 c-3 331 -3 340 -23 342
-16 1 -16 1 -2 -3z"/>
<path d="M5525 6252 c-42 -26 -55 -45 -62 -85 -9 -60 16 -91 111 -137 46 -21
86 -46 90 -55 17 -45 -31 -64 -114 -46 -30 7 -61 13 -68 14 -7 1 -20 -13 -27
-31 l-15 -33 38 -16 c50 -21 160 -28 205 -14 53 18 77 53 77 114 0 43 -4 54
-33 81 -19 17 -57 40 -86 51 -70 27 -95 50 -81 75 12 23 53 26 114 9 35 -10
42 -9 53 7 36 49 5 73 -100 81 -59 4 -77 1 -102 -15z"/>
<path d="M3580 6056 l0 -205 36 -7 c49 -9 169 3 202 20 67 35 92 86 92 189 0
87 -23 144 -71 178 -30 21 -47 24 -146 27 l-113 4 0 -206z m211 98 c21 -22 24
-35 24 -100 0 -65 -3 -76 -25 -99 -17 -16 -41 -27 -73 -31 l-47 -7 0 132 0
131 48 0 c39 0 53 -5 73 -26z"/>
<path d="M4025 6059 c-44 -132 -64 -204 -57 -211 5 -5 25 -8 43 -6 30 3 36 8
49 46 l14 42 68 0 c66 0 69 -1 78 -27 6 -16 14 -35 19 -43 9 -17 69 -26 83
-12 10 10 -104 374 -124 400 -6 6 -32 12 -58 12 l-48 0 -67 -201z m143 24 l20
-73 -44 0 c-24 0 -44 3 -44 6 0 13 42 146 45 142 1 -1 12 -36 23 -75z"/>
<path d="M4384 6245 c-4 -8 -5 -86 -3 -173 5 -222 10 -227 194 -227 l100 0 3
38 3 37 -85 0 c-46 0 -91 3 -100 6 -14 5 -16 30 -16 170 l0 164 -45 0 c-31 0
-47 -5 -51 -15z"/>
<path d="M4730 6096 c0 -91 4 -176 10 -190 17 -46 54 -60 165 -64 110 -4 130
4 123 50 -3 22 -8 23 -93 28 -49 3 -96 9 -102 13 -10 6 -13 51 -13 168 l0 159
-45 0 -45 0 0 -164z"/>
<path d="M5175 6249 c-20 -31 -134 -394 -126 -402 13 -13 73 -4 82 13 5 8 13
27 19 43 9 26 12 27 79 27 69 0 69 0 76 -30 9 -42 31 -60 71 -60 26 0 34 4 34
18 0 15 -102 328 -125 385 -5 13 -19 17 -55 17 -27 0 -52 -5 -55 -11z m75
-160 c12 -39 19 -73 17 -76 -3 -2 -23 -3 -44 -1 l-39 3 19 73 c11 39 21 72 23
72 2 0 13 -32 24 -71z"/>
<path d="M2818 6215 c-95 -36 -172 -116 -205 -211 -22 -66 -15 -185 17 -249
47 -97 148 -170 248 -180 l47 -4 -42 9 c-94 20 -172 78 -219 162 -26 48 -29
62 -29 143 0 105 20 158 86 224 66 66 119 86 224 86 81 0 95 -3 143 -29 86
-48 145 -129 163 -225 l8 -46 -4 52 c-8 100 -84 207 -183 254 -59 28 -197 36
-254 14z"/>
<path d="M2918 6008 c-54 -38 -65 -58 -32 -58 11 0 14 -23 16 -122 1 -68 3
-97 5 -65 4 50 7 59 31 71 40 21 63 50 73 93 11 46 1 140 -12 108 -6 -17 -8
-17 -8 -2 -1 24 -8 22 -73 -25z"/>
<path d="M2788 5921 c-23 -13 -28 -23 -28 -53 0 -32 4 -39 26 -44 38 -10 47 6
37 63 l-8 49 -27 -15z"/>
<path d="M3252 5855 c0 -16 2 -22 5 -12 2 9 2 23 0 30 -3 6 -5 -1 -5 -18z"/>
<path d="M4047 5745 c-80 -28 -122 -102 -121 -210 1 -80 17 -124 60 -166 33
-32 40 -34 112 -37 67 -3 81 -1 112 20 53 35 80 97 80 184 0 39 -5 86 -11 105
-17 51 -65 96 -115 108 -54 14 -70 13 -117 -4z m103 -80 c36 -19 54 -70 48
-142 -6 -73 -32 -107 -84 -111 -32 -2 -44 2 -64 23 -22 24 -25 35 -25 107 0
77 1 80 33 109 37 33 51 35 92 14z"/>
<path d="M4504 5751 c-48 -12 -92 -48 -117 -94 -17 -33 -22 -59 -22 -122 0
-137 47 -196 162 -203 72 -5 122 2 148 22 17 12 17 17 5 45 -11 26 -17 31 -34
26 -12 -4 -44 -9 -73 -12 -48 -5 -54 -3 -83 25 -27 28 -30 37 -30 94 0 109 50
160 137 139 23 -6 44 -11 47 -11 7 0 39 61 34 65 -29 24 -124 39 -174 26z"/>
<path d="M3590 5580 c0 -241 7 -250 191 -250 l99 0 0 40 0 40 -88 0 c-55 0
-92 4 -100 12 -8 8 -12 60 -12 170 l0 158 -45 0 -45 0 0 -170z"/>
<path d="M4760 5539 l0 -210 43 3 42 3 5 60 c4 47 11 68 33 95 16 19 31 31 33
25 2 -5 25 -48 52 -95 l47 -85 48 -3 c29 -2 47 1 47 8 0 6 -29 64 -65 129 -36
65 -65 123 -65 129 0 6 25 39 55 75 30 35 55 67 55 71 0 4 -23 6 -52 4 l-52
-3 -68 -83 -68 -83 0 85 0 86 -45 0 -45 0 0 -211z"/>
<path d="M5404 5721 c-64 -39 -81 -96 -43 -145 l21 -26 -26 -31 c-31 -36 -35
-101 -10 -138 49 -70 231 -68 277 2 32 50 25 123 -14 151 l-21 14 22 30 c18
24 21 39 17 67 -3 20 -12 44 -19 52 -36 44 -150 57 -204 24z m117 -61 c23 -13
25 -52 4 -70 -35 -29 -95 -7 -95 36 0 37 49 56 91 34z m24 -174 c18 -27 7 -69
-20 -80 -54 -20 -107 4 -107 49 0 36 25 55 74 55 28 0 41 -6 53 -24z"/>
<path d="M5950 5721 c-102 -54 -120 -279 -29 -355 50 -42 73 -43 108 -4 l30
33 -31 5 c-58 9 -88 81 -73 176 7 52 41 94 75 94 12 0 35 -13 52 -30 29 -29
29 -33 26 -110 l-3 -79 48 47 c47 45 48 49 44 95 -11 118 -140 184 -247 128z"/>
<path d="M7347 5713 c-13 -13 -7 -51 9 -57 9 -4 20 -3 23 0 3 4 0 9 -6 11 -7
3 -13 14 -13 24 0 11 5 17 10 14 6 -3 10 -1 10 4 0 12 -23 15 -33 4z"/>
<path d="M7397 5714 c-9 -9 -9 -48 0 -57 3 -4 12 1 19 11 8 10 13 12 14 5 0
-28 20 -11 20 17 0 33 -14 40 -25 13 -7 -17 -8 -17 -14 0 -4 10 -10 15 -14 11z"/>
<path d="M7467 5713 c-11 -10 -8 -51 4 -59 6 -3 16 -1 22 5 8 8 6 11 -7 11
-11 0 -16 6 -14 18 2 9 10 16 16 15 7 -2 12 2 12 7 0 11 -23 14 -33 3z"/>
<path d="M7518 5685 c5 -41 18 -38 24 5 3 23 1 30 -12 30 -12 0 -15 -8 -12
-35z"/>
<path d="M7560 5685 c0 -28 4 -35 20 -35 25 0 27 20 3 21 -15 0 -15 2 2 9 17
7 17 9 3 9 -10 1 -18 5 -18 10 0 5 8 12 18 14 13 4 11 5 -5 6 -20 1 -23 -4
-23 -34z"/>
<path d="M7611 5685 c1 -22 3 -32 6 -22 4 14 8 16 19 6 11 -9 14 -8 15 2 0 8
4 5 9 -6 7 -16 9 -11 9 20 0 37 -1 39 -14 21 -15 -20 -15 -20 -30 0 -13 18
-14 16 -14 -21z"/>
<path d="M7691 5689 c-14 -42 -14 -44 5 -28 13 10 17 10 25 -2 7 -12 9 -12 9
1 0 25 -12 60 -20 60 -5 0 -13 -14 -19 -31z"/>
<path d="M7770 5710 c0 -6 5 -8 11 -5 13 9 8 -27 -6 -37 -14 -10 1 -22 19 -15
21 8 16 61 -7 65 -9 2 -17 -2 -17 -8z"/>
<path d="M7826 5698 c-8 -33 -7 -40 4 -33 6 4 17 1 25 -5 18 -15 18 -12 4 29
-13 37 -24 40 -33 9z"/>
<path d="M7881 5689 c-1 -35 1 -37 37 -41 20 -3 38 -5 38 -4 1 1 -2 19 -6 41
-6 31 -8 34 -9 13 0 -16 -5 -28 -10 -28 -5 0 -12 12 -14 28 l-4 27 -2 -27 c0
-16 -5 -28 -10 -28 -5 0 -12 12 -14 28 -3 22 -4 21 -6 -9z"/>
<path d="M7960 5690 c0 -32 9 -37 28 -18 9 9 12 8 12 -6 0 -9 5 -14 10 -11 6
3 10 17 10 31 0 36 18 29 23 -8 l4 -33 1 33 c2 39 19 43 24 5 2 -20 9 -28 23
-28 11 0 21 8 23 18 2 10 -3 17 -12 17 -9 0 -16 6 -16 14 0 20 -88 18 -100 -3
-8 -14 -9 -14 -10 2 0 9 -4 17 -10 17 -5 0 -10 -13 -10 -30z"/>
<path d="M8133 5685 c0 -22 2 -30 4 -17 2 12 2 30 0 40 -3 9 -5 -1 -4 -23z"/>
<path d="M8181 5686 c-1 -37 0 -39 14 -20 8 11 15 14 15 7 0 -28 20 -11 20 17
0 33 -14 40 -25 13 -7 -17 -8 -16 -15 2 -7 15 -9 11 -9 -19z"/>
<path d="M8242 5685 c0 -22 2 -32 5 -22 5 18 23 24 23 7 0 -5 5 -10 10 -10 6
0 10 15 10 33 -1 29 -2 30 -14 15 -7 -10 -16 -18 -19 -18 -3 0 -8 8 -10 18 -3
9 -5 -1 -5 -23z"/>
<path d="M8312 5711 c-23 -14 -10 -46 18 -46 16 0 26 6 28 19 3 16 -12 36 -28
36 -3 0 -11 -4 -18 -9z"/>
<path d="M8377 5714 c-13 -14 -7 -52 10 -58 22 -9 35 6 31 35 -3 23 -27 37
-41 23z m33 -30 c0 -8 -7 -14 -15 -14 -15 0 -21 21 -9 33 10 9 24 -2 24 -19z"/>
<path d="M8430 5686 l0 -36 22 22 c19 19 23 20 26 7 2 -11 14 -16 37 -16 30 0
35 4 35 23 0 31 -17 39 -26 12 -6 -21 -7 -21 -18 -2 -6 11 -24 20 -43 22 -32
3 -33 2 -33 -32z m30 14 c0 -5 -5 -10 -11 -10 -5 0 -7 5 -4 10 3 6 8 10 11 10
2 0 4 -4 4 -10z"/>
<path d="M8566 5698 c-8 -33 -7 -40 4 -33 6 4 17 1 25 -5 18 -15 18 -12 4 29
-13 37 -24 40 -33 9z"/>
<path d="M8621 5689 c-1 -32 2 -37 24 -41 23 -5 25 -2 25 28 0 18 -4 36 -10
39 -6 4 -10 -5 -10 -19 0 -35 -18 -33 -23 2 -3 22 -4 21 -6 -9z"/>
<path d="M8681 5686 c-1 -26 2 -37 9 -30 6 6 6 21 1 39 -9 30 -9 30 -10 -9z"/>
<path d="M8712 5708 c-14 -14 -16 -32 -3 -23 5 3 12 -5 14 -17 3 -15 5 -9 6
15 1 41 0 42 -17 25z"/>
<path d="M8741 5685 c-1 -37 0 -38 17 -22 11 12 13 20 6 25 -6 4 -14 14 -17
22 -3 8 -6 -3 -6 -25z"/>
<path d="M8776 5712 c-3 -5 -1 -22 4 -38 8 -29 8 -29 9 9 1 36 -3 45 -13 29z"/>
<path d="M3040 5664 c0 -14 4 -23 10 -19 6 3 10 15 10 26 0 10 -4 19 -10 19
-5 0 -10 -12 -10 -26z"/>
<path d="M7343 5604 c-3 -8 1 -22 9 -30 13 -13 16 -13 27 0 7 9 11 23 7 31 -7
20 -35 19 -43 -1z m35 -11 c-4 -22 -22 -20 -26 1 -2 10 3 16 13 16 10 0 15 -7
13 -17z"/>
<path d="M7408 5595 c2 -14 6 -25 7 -25 1 0 5 11 7 25 3 16 1 25 -7 25 -8 0
-10 -9 -7 -25z"/>
<path d="M7490 5610 c0 -5 -8 -10 -17 -11 -14 0 -15 -2 -3 -6 8 -3 18 -11 22
-17 4 -6 8 1 8 17 0 15 -2 27 -5 27 -3 0 -5 -4 -5 -10z"/>
<path d="M7510 5594 c0 -15 3 -23 8 -18 4 5 10 11 13 14 4 3 1 11 -7 18 -12
11 -14 8 -14 -14z"/>
<path d="M7553 5604 c-3 -8 2 -22 11 -30 9 -8 11 -9 6 -2 -15 18 -12 36 8 41
16 4 16 5 -1 6 -10 0 -20 -6 -24 -15z"/>
<path d="M7606 5604 c-9 -25 -7 -30 13 -30 12 0 17 6 13 18 -6 25 -19 31 -26
12z"/>
<path d="M7680 5610 c0 -5 -8 -10 -17 -11 -14 0 -15 -2 -3 -6 8 -3 18 -11 22
-17 4 -6 8 1 8 17 0 15 -2 27 -5 27 -3 0 -5 -4 -5 -10z"/>
<path d="M7742 5595 c0 -16 2 -22 5 -12 2 9 2 23 0 30 -3 6 -5 -1 -5 -18z"/>
<path d="M7783 5585 c0 -22 2 -30 4 -17 2 12 2 30 0 40 -3 9 -5 -1 -4 -23z"/>
<path d="M7815 5600 c-10 -11 -15 -23 -12 -26 4 -4 10 1 14 11 6 18 7 18 14
-1 6 -16 8 -15 8 9 1 32 -1 33 -24 7z"/>
<path d="M7851 5593 c2 -24 2 -25 6 -5 2 12 8 22 13 22 5 0 11 -10 13 -22 4
-20 4 -19 6 5 1 21 -4 27 -19 27 -15 0 -20 -6 -19 -27z"/>
<path d="M7900 5595 c0 -23 3 -27 10 -15 9 13 11 13 20 0 7 -12 10 -8 10 15 0
23 -3 27 -10 15 -9 -13 -11 -13 -20 0 -7 12 -10 8 -10 -15z"/>
<path d="M7951 5596 c-1 -28 -1 -29 19 -11 11 10 20 23 20 29 0 6 -6 2 -12 -9
-11 -19 -11 -19 -19 0 -6 17 -8 15 -8 -9z"/>
<path d="M8001 5593 c0 -16 3 -22 6 -15 2 6 11 12 19 12 8 0 14 7 14 15 0 8
-9 15 -20 15 -15 0 -20 -6 -19 -27z"/>
<path d="M8051 5593 c2 -24 2 -25 6 -5 2 12 8 22 13 22 5 0 11 -10 13 -22 4
-20 4 -19 6 5 1 21 -4 27 -19 27 -15 0 -20 -6 -19 -27z"/>
<path d="M8101 5595 c-1 -23 2 -27 9 -15 9 13 11 13 20 0 8 -12 10 -9 10 13 0
15 -5 27 -11 27 -5 0 -7 -4 -4 -10 3 -5 2 -10 -4 -10 -5 0 -12 6 -14 13 -3 6
-6 -1 -6 -18z"/>
<path d="M8157 5606 c-11 -27 -9 -32 13 -32 24 0 25 6 7 30 -13 18 -14 18 -20
2z"/>
<path d="M8230 5610 c0 -5 -8 -10 -17 -11 -14 0 -15 -2 -3 -6 8 -3 18 -11 22
-17 4 -6 8 1 8 17 0 15 -2 27 -5 27 -3 0 -5 -4 -5 -10z"/>
<path d="M8250 5595 c0 -23 3 -27 10 -15 9 13 11 13 20 0 7 -12 10 -8 10 15 0
23 -3 27 -10 15 -9 -13 -11 -13 -20 0 -7 12 -10 8 -10 -15z"/>
<path d="M8301 5593 c2 -24 2 -25 6 -5 2 12 8 22 13 22 5 0 11 -10 13 -22 4
-20 4 -19 6 5 1 21 -4 27 -19 27 -15 0 -20 -6 -19 -27z"/>
<path d="M8352 5595 c0 -16 2 -22 5 -12 2 9 2 23 0 30 -3 6 -5 -1 -5 -18z"/>
<path d="M8391 5593 c2 -25 2 -26 6 -5 3 15 10 22 19 18 8 -3 14 -1 14 4 0 6
-9 10 -20 10 -15 0 -20 -6 -19 -27z"/>
<path d="M8471 5608 c0 -9 -4 -25 -7 -35 -5 -14 -4 -15 5 -7 7 7 11 22 8 35
-2 13 -5 16 -6 7z"/>
<path d="M8498 5590 c2 -16 6 -30 8 -30 2 0 4 14 4 30 0 17 -4 30 -8 30 -5 0
-7 -13 -4 -30z"/>
<path d="M8521 5593 c2 -24 2 -25 6 -5 2 12 8 22 13 22 5 0 11 -10 13 -22 4
-20 4 -19 6 5 1 21 -4 27 -19 27 -15 0 -20 -6 -19 -27z"/>
<path d="M8571 5593 c1 -22 2 -23 6 -8 3 11 10 23 17 27 7 5 5 8 -6 8 -13 0
-18 -7 -17 -27z"/>
<path d="M8658 5593 c5 -25 6 -25 18 -8 8 10 14 24 13 29 0 6 -3 5 -6 -2 -3
-9 -9 -10 -18 -2 -9 8 -11 4 -7 -17z"/>
<path d="M8702 5595 c0 -16 2 -22 5 -12 2 9 2 23 0 30 -3 6 -5 -1 -5 -18z"/>
<path d="M8732 5595 c0 -16 2 -22 5 -12 2 9 2 23 0 30 -3 6 -5 -1 -5 -18z"/>
<path d="M8757 5606 c-11 -27 -9 -32 13 -32 24 0 25 6 7 30 -13 18 -14 18 -20
2z"/>
<path d="M7712 5601 c-11 -7 -11 -9 2 -14 10 -4 16 -1 16 8 0 17 -1 17 -18 6z"/>
<path d="M2968 5573 c6 -2 18 -2 25 0 6 3 1 5 -13 5 -14 0 -19 -2 -12 -5z"/>
<path d="M6838 5563 c6 -2 18 -2 25 0 6 3 1 5 -13 5 -14 0 -19 -2 -12 -5z"/>
<path d="M6938 5563 c6 -2 18 -2 25 0 6 3 1 5 -13 5 -14 0 -19 -2 -12 -5z"/>
<path d="M6778 5553 c6 -2 18 -2 25 0 6 3 1 5 -13 5 -14 0 -19 -2 -12 -5z"/>
<path d="M6998 5553 c7 -3 16 -2 19 1 4 3 -2 6 -13 5 -11 0 -14 -3 -6 -6z"/>
<path d="M6728 5543 c6 -2 18 -2 25 0 6 3 1 5 -13 5 -14 0 -19 -2 -12 -5z"/>
<path d="M7048 5543 c6 -2 18 -2 25 0 6 3 1 5 -13 5 -14 0 -19 -2 -12 -5z"/>
<path d="M6673 5533 c9 -2 23 -2 30 0 6 3 -1 5 -18 5 -16 0 -22 -2 -12 -5z"/>
<path d="M7108 5533 c7 -3 16 -2 19 1 4 3 -2 6 -13 5 -11 0 -14 -3 -6 -6z"/>
<path d="M6604 5517 c-3 -8 -3 -45 -1 -83 l3 -69 2 77 c2 71 4 77 25 81 l22 4
-23 2 c-12 0 -25 -5 -28 -12z"/>
<path d="M7158 5523 c7 -3 16 -2 19 1 4 3 -2 6 -13 5 -11 0 -14 -3 -6 -6z"/>
<path d="M7343 5489 c-9 -9 -13 -52 -13 -140 0 -142 -2 -139 76 -139 94 0 145
42 152 123 5 63 -15 118 -52 142 -34 22 -146 32 -163 14z m131 -64 c22 -22 29
-75 16 -110 -14 -37 -26 -45 -67 -45 l-33 0 0 85 0 85 34 0 c19 0 41 -7 50
-15z"/>
<path d="M7683 5488 c-10 -12 -93 -255 -93 -271 0 -4 13 -7 29 -7 23 0 31 6
40 31 10 29 13 30 58 27 41 -3 48 -6 53 -28 4 -19 13 -26 38 -28 18 -2 32 0
32 5 0 16 -83 258 -93 271 -5 6 -20 12 -32 12 -12 0 -27 -6 -32 -12z m55 -164
c-4 -3 -17 -4 -30 -2 -24 3 -24 3 -9 53 l14 50 15 -47 c9 -27 13 -50 10 -54z"/>
<path d="M7880 5378 c0 -68 4 -128 8 -135 13 -20 61 -33 123 -33 59 0 59 0 59
30 l0 30 -65 0 -64 0 -3 113 -3 112 -27 3 -28 3 0 -123z"/>
<path d="M8110 5376 c0 -138 5 -150 63 -161 18 -4 55 -5 82 -3 46 3 50 5 50
28 0 24 -3 25 -67 28 l-67 3 -3 112 -3 112 -27 3 -28 3 0 -125z"/>
<path d="M8414 5492 c-11 -7 -94 -245 -94 -270 0 -6 12 -12 26 -12 19 0 28 7
37 30 10 27 15 30 58 30 43 0 48 -2 58 -30 7 -22 16 -30 34 -30 13 0 26 3 29
6 9 8 -80 266 -94 276 -16 10 -40 10 -54 0z m56 -164 c0 -5 -13 -8 -30 -8 -16
0 -30 2 -30 4 0 3 16 54 27 86 4 13 32 -58 33 -82z"/>
<path d="M8640 5487 c-30 -15 -45 -54 -36 -91 5 -20 20 -33 56 -50 54 -25 80
-44 80 -58 0 -17 -44 -25 -88 -15 -45 9 -61 1 -62 -30 0 -19 68 -36 123 -30
59 5 87 31 87 81 0 39 -26 65 -93 95 -63 27 -58 46 12 47 48 1 70 12 71 36 0
10 -60 28 -94 28 -17 0 -42 -6 -56 -13z"/>
<path d="M6805 5451 c-150 -69 -170 -278 -37 -378 24 -18 49 -33 55 -33 7 0 3
6 -8 12 -124 68 -154 234 -61 336 41 46 93 64 167 60 58 -3 74 -8 106 -34 21
-17 48 -46 61 -64 25 -37 29 -33 8 8 -20 38 -65 78 -108 96 -50 21 -134 20
-183 -3z"/>
<path d="M5736 5414 c-20 -19 -21 -58 -2 -73 8 -7 30 -11 48 -9 25 2 35 9 42
30 18 51 -49 91 -88 52z"/>
<path d="M7181 5414 c-1 -29 -25 -47 -51 -39 -21 7 -21 6 -7 -22 59 -114 -1
-272 -123 -326 -82 -37 -197 -21 -259 36 -13 12 -37 40 -52 61 l-29 39 0 -40
c0 -49 -22 -63 -45 -30 -16 22 -16 22 -9 -8 18 -82 89 -159 221 -242 l73 -45
78 48 c101 63 196 157 211 210 13 45 14 280 2 339 -5 22 -9 30 -10 19z"/>
<path d="M6895 5324 c-29 -20 -42 -34 -32 -34 15 0 17 -12 19 -82 0 -46 3 -68
5 -49 3 22 16 45 39 66 28 27 34 39 34 74 0 30 -3 40 -12 35 -8 -5 -9 -2 -5 9
3 10 5 17 4 16 -1 0 -24 -16 -52 -35z"/>
<path d="M7111 5294 c0 -11 3 -14 6 -6 3 7 2 16 -1 19 -3 4 -6 -2 -5 -13z"/>
<path d="M6805 5260 c-4 -6 -11 -8 -16 -4 -7 4 -9 -5 -7 -22 2 -21 9 -30 26
-32 19 -3 22 1 22 32 0 35 -12 47 -25 26z"/>
<path d="M7650 5147 c-50 -18 -80 -67 -80 -134 0 -99 37 -143 121 -143 82 0
121 44 122 138 2 111 -69 171 -163 139z m84 -69 c23 -33 21 -113 -4 -138 -39
-39 -87 -18 -96 42 -11 68 15 118 61 118 13 0 31 -10 39 -22z"/>
<path d="M7956 5150 c-80 -24 -119 -126 -82 -214 20 -49 51 -66 116 -66 64 0
95 16 84 44 -6 15 -14 17 -51 11 -57 -8 -88 11 -97 59 -8 44 14 102 44 111 12
4 37 4 55 1 28 -6 34 -3 40 15 8 23 -7 39 -37 39 -9 0 -22 2 -30 4 -7 2 -26 0
-42 -4z"/>
<path d="M7340 5036 c0 -99 3 -117 21 -140 19 -24 26 -26 100 -26 78 0 79 0
79 25 0 24 -3 25 -58 25 -32 0 -63 5 -70 12 -8 8 -12 48 -12 115 l0 103 -30 0
-30 0 0 -114z"/>
<path d="M8130 5010 l0 -140 30 0 c29 0 30 2 30 43 0 32 6 49 21 63 12 10 24
15 26 9 2 -5 17 -34 33 -62 28 -48 34 -53 66 -53 l35 0 -32 58 c-17 31 -40 71
-51 89 l-19 32 28 33 c60 70 59 68 20 68 -31 0 -42 -7 -81 -56 l-46 -56 0 56
c0 56 0 56 -30 56 l-30 0 0 -140z"/>
<path d="M8586 5139 c-15 -4 -37 -16 -47 -25 -22 -20 -25 -67 -5 -83 13 -11
12 -15 -5 -32 -29 -29 -25 -83 7 -108 40 -32 126 -29 159 4 30 30 33 77 6 104
-17 17 -18 21 -5 32 17 14 18 59 1 83 -16 22 -73 35 -111 25z m45 -49 c40 -22
12 -69 -32 -55 -31 10 -24 56 9 64 2 1 12 -4 23 -9z m13 -106 c25 -10 20 -53
-8 -65 -32 -15 -66 4 -66 36 0 31 34 44 74 29z"/>
<path d="M9272 5138 c-7 -7 -12 -29 -12 -50 0 -36 2 -38 30 -38 17 0 30 5 30
10 0 6 11 22 25 35 18 19 35 25 70 25 33 0 45 -4 45 -15 0 -11 -11 -15 -38
-15 -36 0 -62 -14 -62 -32 0 -4 41 -8 90 -8 l90 0 0 38 c0 21 -5 43 -12 50 -8
8 -51 12 -128 12 -77 0 -120 -4 -128 -12z"/>
<path d="M8911 5119 c-29 -27 -41 -60 -41 -113 0 -94 36 -136 115 -136 38 0
52 5 74 28 53 52 49 178 -6 221 -36 29 -111 29 -142 0z m120 -67 c12 -32 6
-96 -11 -117 -18 -22 -67 -19 -80 4 -14 27 -13 114 3 133 28 36 71 26 88 -20z"/>
<path d="M6898 5073 c18 -2 45 -2 60 0 15 2 0 4 -33 4 -33 0 -45 -2 -27 -4z"/>
<path d="M6848 5033 c7 -3 16 -2 19 1 4 3 -2 6 -13 5 -11 0 -14 -3 -6 -6z"/>
<path d="M9130 5005 c0 -23 4 -25 45 -25 41 0 45 2 45 25 0 23 -4 25 -45 25
-41 0 -45 -2 -45 -25z"/>
<path d="M8786 4927 c-28 -21 -12 -59 22 -55 41 5 42 67 1 68 -3 0 -13 -6 -23
-13z"/>
<path d="M9230 4360 l0 -40 676 0 c614 0 676 1 670 16 -3 9 -9 27 -12 40 l-6
24 -664 0 -664 0 0 -40z"/>
<path d="M10600 4386 c0 -33 20 -66 41 -66 18 0 20 4 14 33 -4 17 -9 35 -12
40 -8 13 -43 7 -43 -7z"/>
<path d="M7672 4364 l-42 -25 2 -726 3 -725 43 -25 42 -25 0 776 c0 427 -1
776 -2 776 -2 0 -22 -12 -46 -26z"/>
<path d="M8431 3564 c0 -11 3 -14 6 -6 3 7 2 16 -1 19 -3 4 -6 -2 -5 -13z"/>
<path d="M8406 3492 c-28 -68 -95 -134 -169 -168 -52 -24 -75 -29 -144 -29
-45 0 -75 -3 -65 -7 30 -12 125 -8 175 7 62 19 131 67 169 118 33 46 61 104
56 118 -2 5 -12 -13 -22 -39z"/>
<path d="M7261 3444 c0 -11 3 -14 6 -6 3 7 2 16 -1 19 -3 4 -6 -2 -5 -13z"/>
<path d="M7271 3404 c0 -11 3 -14 6 -6 3 7 2 16 -1 19 -3 4 -6 -2 -5 -13z"/>
<path d="M7290 3342 c-1 -48 121 -251 191 -317 l43 -40 -43 50 c-63 73 -127
173 -160 251 -17 38 -30 63 -31 56z"/>
<path d="M7954 3316 c11 -9 27 -16 35 -15 14 0 14 1 1 6 -8 3 -24 10 -35 15
-20 9 -20 9 -1 -6z"/>
<path d="M9230 2890 l0 -40 659 0 c443 0 662 3 666 10 4 6 10 24 15 40 l9 30
-675 0 -674 0 0 -40z"/>
<path d="M10606 2899 c-9 -47 -8 -49 18 -49 16 0 27 7 30 20 3 11 9 29 12 40
4 17 1 20 -24 20 -25 0 -30 -5 -36 -31z"/>
<path d="M5816 2113 c10 -16 24 -40 32 -55 7 -16 20 -28 28 -28 22 0 17 13
-22 63 -39 50 -68 65 -38 20z"/>
<path d="M6510 1418 c43 -45 319 -226 415 -273 144 -69 299 -127 355 -132 38
-3 26 4 -74 41 -205 78 -509 237 -661 344 -27 19 -43 28 -35 20z"/>
<path d="M2370 893 c-47 -2 -89 -8 -93 -12 -41 -41 1702 -55 4903 -39 1507 8
1968 14 2055 26 44 6 35 8 -70 14 -121 8 -6637 18 -6795 11z"/>
</g>
</svg>
