<?xml version="1.0" encoding="UTF-8"?>
<!DOCTYPE svg PUBLIC "-//W3C//DTD SVG 1.1//EN" "http://www.w3.org/Graphics/SVG/1.1/DTD/svg11.dtd">
<svg version="1.1" id="Слой_1" xmlns="http://www.w3.org/2000/svg" xmlns:xlink="http://www.w3.org/1999/xlink" x="0px" y="0px" width="214.301px" height="386.896px" viewBox="0 0 214.301 386.896" enable-background="new 0 0 214.301 386.896" xml:space="preserve"><path fill="#A9B0B9" d="M27.438,0C12.369,0,0,12.72,0,28.208v330.479c0,15.487,12.369,28.209,27.438,28.209h159.42c15.07,0,27.442-12.722,27.442-28.209V28.208C214.297,12.72,201.924,0,186.859,0H27.438L27.438,0z M23.52,361.425v-17.191l33.451-0.112v17.303H23.52L23.52,361.425z M69.515,309.722v-56.091h75.266v56.096H69.515V309.722z M23.52,283.723v-30.092h33.451v30.092H23.52L23.52,283.723z M157.321,283.723l0.004-30.092h33.452v30.092H157.321L157.321,283.723z M23.52,309.722v-17.19h33.451v17.19H23.52L23.52,309.722z M157.324,309.722v-17.19h33.452v17.19H157.324L157.324,309.722z M23.52,335.516v-17.191h33.451v17.191H23.52L23.52,335.516z M157.324,335.516v-17.191h33.452v17.191H157.324L157.324,335.516z M111.33,335.516v-17.191h33.451v17.191H111.33L111.33,335.516z M69.515,335.516v-17.191h33.452v17.191H69.515L69.515,335.516z M157.324,361.425v-17.303h33.452l0.004,17.303H157.324L157.324,361.425z M111.33,361.308v-17.19h33.451v17.19H111.33L111.33,361.308z M69.515,361.308v-17.19h33.452v17.19H69.515L69.515,361.308z M77.874,21.494h58.544v17.195H77.874V21.494L77.874,21.494z M23.52,55.885h167.251v180.551H23.52V55.885z"/></svg>