<?xml version="1.0" encoding="UTF-8"?>
<!DOCTYPE svg PUBLIC "-//W3C//DTD SVG 1.1//EN" "http://www.w3.org/Graphics/SVG/1.1/DTD/svg11.dtd">
<svg version="1.1" id="Слой_1" xmlns="http://www.w3.org/2000/svg" xmlns:xlink="http://www.w3.org/1999/xlink" x="0px" y="0px" width="427.597px" height="386.896px" viewBox="-112.115 0 427.597 386.896" enable-background="new -112.115 0 427.597 386.896" xml:space="preserve"><path fill="#A9B0B9" d="M42.635,294.508c-12.466-28.003-19.71-59.371-20.869-91.934h164.508c-1.159,32.563-8.403,63.931-20.893,91.934H42.635z M172.924,66.457c18.608-9.212,36.493-16.825,52.954-22.304C196.368,20.011,159.649,4.345,119.382,1.146C140.949,18.595,158.95,40.917,172.924,66.457z M155.935,73.866c-13.533-24.142-31.037-44.937-51.925-60.842c-20.887,15.868-38.392,36.7-51.924,60.842H155.935z M125.909,92.253H42.727c-9.929,22.211-16.364,46.537-19.27,71.893c10.407-8.495,21.071-16.842,31.846-24.877C78.14,122.389,102.098,106.447,125.909,92.253z M255.316,73.866c-4.266-5.387-8.844-10.517-13.662-15.408c-12.208,3.475-26.132,8.586-41.572,15.408H255.316z M162.696,92.253c-29.143,15.702-61.668,36.057-96.452,61.834c-13.717,10.15-26.441,20.189-38.373,30.1h158.352c-1.182-32.563-8.444-63.931-20.966-91.934H162.696z M-67.337,281.123c2.317,4.523,4.523,9.088,7.208,13.404h82.851C11.543,266.818,4.942,236.553,3.6,205.148C-27.529,233.096-51.138,259.059-67.337,281.123z M119.639,385.689c54.917-4.432,103.408-31.883,135.747-72.794h-78.126C162.871,341.633,143.229,366.474,119.639,385.689z M88.602,1.146c-54.995,4.357-103.5,31.809-135.897,72.72h78.163C45.302,45.146,64.938,20.323,88.602,1.146z M51.957,312.895c13.533,24.198,31.074,45.14,52.053,61.059c20.966-15.919,38.521-36.849,52.054-61.059H51.957z M185.225,92.253c11.529,28.445,18.296,59.61,19.403,91.934h91.989c-1.6-33.611-11.785-64.942-28.481-91.934H185.225z M185.313,294.508h82.892c16.654-26.992,26.845-58.323,28.426-91.934H204.66C203.556,234.894,196.823,266.044,185.313,294.508L185.313,294.508z M30.776,312.895h-78.107c32.343,40.911,80.792,68.362,135.732,72.794C64.773,366.474,45.135,341.633,30.776,312.895z M3.655,180.749c1.452-31.055,8.017-61.044,19.122-88.496h-82.888c-16.695,26.992-26.881,58.323-28.481,91.934h88.257C0.971,183.047,2.331,181.907,3.655,180.749z M-20.505,202.574h-68.069c0.994,20.924,5.626,40.8,12.761,59.427C-60.736,242.804-41.779,222.616-20.505,202.574z M-63.899,350.625c-13.992,1.448-23.792-0.551-27.635-5.736c-5.699-7.667-1.232-24.638,13.092-47.622c-5.369-9.065-9.764-16.659-10.297-17.56c-21.439,31.7-30.118,59.225-17.578,76.16c6.748,9.05,18.166,13.628,34.034,13.628c3.254,0,6.693-0.225,10.315-0.593c5.038-0.509,8.733-5.037,8.163-10.107C-54.319,353.751-58.805,350.073-63.899,350.625z M309.521,47.775c-10.799-14.563-33.722-16.346-63.196-9.396l14.14,13.606c0.533,0.57,1.048,1.159,1.563,1.784c16.879-2.685,28.353-0.993,32.71,4.946c4.413,5.976,1.839,16.585-1.141,24.455c-1.787,4.78,0.626,10.058,5.387,11.877c4.703,1.766,10.059-0.625,11.842-5.387C317.445,71.991,317.003,57.925,309.521,47.775L309.521,47.775z"/></svg>